<svg xmlns="http://www.w3.org/2000/svg" viewBox="0 0 1440 900" font-family="ui-sans-serif, system-ui, -apple-system" fill="#E8ECF3">
  <!-- ====== Screen 2 of 6: Run Cockpit (single pipeline live view) ====== -->
  <defs>
    <linearGradient id="brand" x1="0" y1="0" x2="1" y2="0">
      <stop offset="0%" stop-color="#7C5CFC"/>
      <stop offset="100%" stop-color="#2DD4BF"/>
    </linearGradient>
    <linearGradient id="card" x1="0" y1="0" x2="0" y2="1">
      <stop offset="0%" stop-color="#1B1F26"/>
      <stop offset="100%" stop-color="#14171C"/>
    </linearGradient>
    <pattern id="grid" width="40" height="40" patternUnits="userSpaceOnUse">
      <path d="M 40 0 L 0 0 0 40" fill="none" stroke="#1A1E25" stroke-width="0.5"/>
    </pattern>
  </defs>

  <rect width="1440" height="900" fill="#0B0D10"/>
  <rect width="1440" height="900" fill="url(#grid)" opacity="0.4"/>

  <!-- Left rail (collapsed but consistent) -->
  <rect x="0" y="0" width="240" height="900" fill="#0E1115" stroke="#1F2329" stroke-width="1"/>
  <text x="24" y="44" font-size="18" font-weight="800" fill="url(#brand)">ORCHEMIST</text>
  <text x="24" y="62" font-size="10" font-weight="500" fill="#8A93A2" letter-spacing="2">HARNESS · LEVEL 5</text>
  <g font-size="13" font-weight="600">
    <g transform="translate(0, 100)" fill="#8A93A2">
      <circle cx="32" cy="18" r="4" fill="none" stroke="#5A6371"/>
      <text x="52" y="22">Fleet Dashboard</text>
      <text x="206" y="22" fill="#5A6371" font-size="11" text-anchor="end">⌘1</text>
    </g>
    <g transform="translate(0, 144)">
      <rect x="12" y="0" width="216" height="36" rx="6" fill="#161A21" stroke="#7C5CFC" stroke-width="1.5"/>
      <circle cx="32" cy="18" r="4" fill="#7C5CFC"/>
      <text x="52" y="22" fill="#E8ECF3">Run Cockpit</text>
      <text x="206" y="22" fill="#5A6371" font-size="11" text-anchor="end">⌘2</text>
    </g>
    <g transform="translate(0, 184)" fill="#8A93A2">
      <circle cx="32" cy="18" r="4" fill="none" stroke="#5A6371"/>
      <text x="52" y="22">Adversary Loop</text>
      <text x="206" y="22" fill="#5A6371" font-size="11" text-anchor="end">⌘3</text>
    </g>
    <g transform="translate(0, 224)" fill="#8A93A2">
      <circle cx="32" cy="18" r="4" fill="none" stroke="#5A6371"/>
      <text x="52" y="22">Trust &amp; Gates</text>
      <text x="206" y="22" fill="#5A6371" font-size="11" text-anchor="end">⌘4</text>
    </g>
    <g transform="translate(0, 264)" fill="#8A93A2">
      <circle cx="32" cy="18" r="4" fill="none" stroke="#5A6371"/>
      <text x="52" y="22">Admin / Activation</text>
      <text x="206" y="22" fill="#5A6371" font-size="11" text-anchor="end">⌘5</text>
    </g>
    <g transform="translate(0, 304)" fill="#8A93A2">
      <circle cx="32" cy="18" r="4" fill="none" stroke="#5A6371"/>
      <text x="52" y="22">Skills Pack Mode</text>
      <text x="206" y="22" fill="#5A6371" font-size="11" text-anchor="end">⌘6</text>
    </g>
  </g>

  <!-- Other open runs (mini list) -->
  <g font-size="11">
    <text x="24" y="400" font-size="10" letter-spacing="2" fill="#5A6371" font-weight="600">OTHER LIVE RUNS</text>
    <g transform="translate(0, 416)" font-size="11">
      <text x="24" y="0" fill="#8A93A2">#799 spec_adv R2</text>
      <text x="218" y="0" font-size="10" fill="#F59E0B" text-anchor="end">↑</text>
    </g>
    <g transform="translate(0, 436)" fill="#8A93A2">
      <text x="24" y="0">#776 implement</text>
      <text x="218" y="0" font-size="10" fill="#2DD4BF" text-anchor="end">▲</text>
    </g>
    <g transform="translate(0, 456)" fill="#8A93A2">
      <text x="24" y="0">#3-local phase0</text>
      <text x="218" y="0" font-size="10" fill="#8A93A2" text-anchor="end">—</text>
    </g>
  </g>

  <!-- Top bar -->
  <rect x="240" y="0" width="1200" height="64" fill="#0E1115" stroke="#1F2329" stroke-width="1"/>
  <text x="264" y="28" font-size="11" fill="#5A6371">
    <tspan fill="#7C5CFC" text-decoration="underline">Fleet</tspan> / orchemist / runs /
  </text>
  <text x="438" y="28" font-size="11" fill="#E8ECF3" font-weight="600">b90a3719 — issue #802</text>
  <text x="264" y="48" font-size="20" font-weight="700" fill="#E8ECF3">Pipeline run · coding-pipeline-standard v4.2</text>

  <!-- Live indicator -->
  <g transform="translate(1040, 18)" font-size="11">
    <rect width="84" height="28" rx="14" fill="#1B1F26" stroke="#2DD4BF"/>
    <circle cx="16" cy="14" r="4" fill="#2DD4BF">
      <animate attributeName="opacity" values="0.4;1;0.4" dur="1.6s" repeatCount="indefinite"/>
    </circle>
    <text x="30" y="18" font-weight="600" fill="#2DD4BF">LIVE · SSE</text>
  </g>
  <!-- Actions -->
  <g transform="translate(1138, 18)" font-size="11">
    <rect width="60" height="28" rx="6" fill="#1B1F26" stroke="#20242C"/>
    <text x="30" y="18" fill="#E8ECF3" text-anchor="middle">Pause</text>
  </g>
  <g transform="translate(1206, 18)" font-size="11">
    <rect width="78" height="28" rx="6" fill="#1B1F26" stroke="#F59E0B"/>
    <text x="39" y="18" fill="#F59E0B" text-anchor="middle">Escalate</text>
  </g>
  <g transform="translate(1292, 18)" font-size="11">
    <rect width="60" height="28" rx="6" fill="#1B1F26" stroke="#EF4444"/>
    <text x="30" y="18" fill="#EF4444" text-anchor="middle">Cancel</text>
  </g>
  <!-- User -->
  <circle cx="1395" cy="32" r="14" fill="url(#brand)"/>
  <text x="1395" y="36" font-size="11" font-weight="700" fill="#0B0D10" text-anchor="middle">RR</text>

  <!-- ===== Main: phase rail (vertical) on left + detail on right ===== -->

  <!-- Phase rail -->
  <g transform="translate(264, 88)">
    <rect width="320" height="748" rx="10" fill="url(#card)" stroke="#20242C"/>
    <text x="20" y="28" fill="#E8ECF3" font-size="14" font-weight="700">Phases · 6 of 10 done</text>
    <text x="20" y="44" fill="#8A93A2" font-size="11">runtime 14m 38s · spend $1.82 / budget $8.00</text>

    <!-- progress bar -->
    <rect x="20" y="58" width="280" height="6" rx="3" fill="#20242C"/>
    <rect x="20" y="58" width="168" height="6" rx="3" fill="url(#brand)"/>

    <!-- Phase items -->
    <g transform="translate(20, 92)" font-size="12">
      <line x1="14" y1="0" x2="14" y2="600" stroke="#20242C" stroke-width="2"/>

      <!-- Phase 0 -->
      <g>
        <circle cx="14" cy="0" r="8" fill="#2DD4BF"/>
        <text x="14" y="4" font-size="10" font-weight="700" fill="#0B0D10" text-anchor="middle">✓</text>
        <text x="36" y="4" fill="#E8ECF3" font-weight="600">0 · existing_symbols_inventory</text>
        <text x="36" y="20" fill="#8A93A2" font-size="11">sonnet · 18s · $0.04 · 41 symbols inventoried</text>
        <text x="36" y="36" fill="#7C5CFC" font-size="10" text-decoration="underline">view existing_symbols.md ↗</text>
      </g>
      <g transform="translate(0, 60)">
        <circle cx="14" cy="0" r="8" fill="#2DD4BF"/>
        <text x="14" y="4" font-size="10" font-weight="700" fill="#0B0D10" text-anchor="middle">✓</text>
        <text x="36" y="4" fill="#E8ECF3" font-weight="600">1a · spec</text>
        <text x="36" y="20" fill="#8A93A2" font-size="11">sonnet · 1m 02s · $0.18 · 1 EXTEND, 2 NEW-OK</text>
      </g>
      <g transform="translate(0, 116)">
        <circle cx="14" cy="0" r="8" fill="#2DD4BF"/>
        <text x="14" y="4" font-size="10" font-weight="700" fill="#0B0D10" text-anchor="middle">✓</text>
        <text x="36" y="4" fill="#E8ECF3" font-weight="600">1b · behavioral</text>
        <text x="36" y="20" fill="#8A93A2" font-size="11">sonnet · 48s · $0.12 · 7 contracts authored</text>
      </g>
      <g transform="translate(0, 172)">
        <circle cx="14" cy="0" r="8" fill="#2DD4BF"/>
        <text x="14" y="4" font-size="10" font-weight="700" fill="#0B0D10" text-anchor="middle">✓</text>
        <text x="36" y="4" fill="#E8ECF3" font-weight="600">1c · spec_adversary</text>
        <text x="36" y="20" fill="#8A93A2" font-size="11">opus · R1 → R2 · APPROVED · $0.62</text>
        <text x="36" y="36" fill="#7C5CFC" font-size="10" text-decoration="underline">view dialogue → ⌘3 Adversary Loop</text>
      </g>
      <g transform="translate(0, 232)">
        <circle cx="14" cy="0" r="8" fill="#2DD4BF"/>
        <text x="14" y="4" font-size="10" font-weight="700" fill="#0B0D10" text-anchor="middle">✓</text>
        <text x="36" y="4" fill="#E8ECF3" font-weight="600">2 · acceptance_test</text>
        <text x="36" y="20" fill="#8A93A2" font-size="11">sonnet · 1m 24s · $0.26 · 12 tests · sealed</text>
        <g transform="translate(228, -10)">
          <rect width="62" height="18" rx="9" fill="#1B2A1F" stroke="#2DD4BF"/>
          <text x="31" y="12" font-size="9" font-weight="700" fill="#2DD4BF" text-anchor="middle">SHA OK</text>
        </g>
      </g>
      <g transform="translate(0, 288)">
        <circle cx="14" cy="0" r="8" fill="#2DD4BF"/>
        <text x="14" y="4" font-size="10" font-weight="700" fill="#0B0D10" text-anchor="middle">✓</text>
        <text x="36" y="4" fill="#E8ECF3" font-weight="600">2b · acceptance_test_adversary</text>
        <text x="36" y="20" fill="#8A93A2" font-size="11">opus · R1 · APPROVED · $0.34</text>
      </g>

      <!-- Active phase -->
      <g transform="translate(0, 344)">
        <circle cx="14" cy="0" r="10" fill="#7C5CFC" stroke="#0B0D10" stroke-width="2">
          <animate attributeName="r" values="10;12;10" dur="1.6s" repeatCount="indefinite"/>
        </circle>
        <text x="14" y="4" font-size="10" font-weight="700" fill="#E8ECF3" text-anchor="middle">3</text>
        <text x="36" y="4" fill="#E8ECF3" font-weight="600">3 · implement (active)</text>
        <text x="36" y="20" fill="#7C5CFC" font-size="11">sonnet · 4m 18s elapsed · $0.26 so far</text>
        <text x="36" y="36" fill="#8A93A2" font-size="11">running tool calls · 23 / ~100 estimated</text>
        <!-- tool call ticker -->
        <rect x="36" y="42" width="246" height="6" rx="3" fill="#20242C"/>
        <rect x="36" y="42" width="58" height="6" rx="3" fill="#7C5CFC"/>
      </g>

      <!-- Upcoming -->
      <g transform="translate(0, 416)" opacity="0.5">
        <circle cx="14" cy="0" r="8" fill="none" stroke="#5A6371" stroke-width="2"/>
        <text x="14" y="4" font-size="10" fill="#5A6371" text-anchor="middle">3b</text>
        <text x="36" y="4" fill="#8A93A2">3b · acceptance_run (queued)</text>
      </g>
      <g transform="translate(0, 444)" opacity="0.5">
        <circle cx="14" cy="0" r="8" fill="none" stroke="#5A6371" stroke-width="2"/>
        <text x="14" y="4" font-size="10" fill="#5A6371" text-anchor="middle">4</text>
        <text x="36" y="4" fill="#8A93A2">4 · review (opus)</text>
      </g>
      <g transform="translate(0, 472)" opacity="0.5">
        <circle cx="14" cy="0" r="8" fill="none" stroke="#5A6371" stroke-width="2"/>
        <text x="14" y="4" font-size="10" fill="#5A6371" text-anchor="middle">4b</text>
        <text x="36" y="4" fill="#8A93A2">4b · fix (conditional)</text>
      </g>
      <g transform="translate(0, 500)" opacity="0.5">
        <circle cx="14" cy="0" r="8" fill="none" stroke="#5A6371" stroke-width="2"/>
        <text x="14" y="4" font-size="10" fill="#5A6371" text-anchor="middle">5</text>
        <text x="36" y="4" fill="#8A93A2">5 · test</text>
      </g>
      <g transform="translate(0, 528)" opacity="0.5">
        <circle cx="14" cy="0" r="8" fill="none" stroke="#5A6371" stroke-width="2"/>
        <text x="14" y="4" font-size="10" fill="#5A6371" text-anchor="middle">⏏</text>
        <text x="36" y="4" fill="#8A93A2">auto-merge gate · threshold 0.90</text>
      </g>
    </g>

    <text x="20" y="730" font-size="10" fill="#5A6371">→ Phase 0 inventory feeds every downstream phase (v4.2)</text>
  </g>

  <!-- Detail panel for active phase -->
  <g transform="translate(604, 88)">
    <!-- Phase header -->
    <rect width="492" height="160" rx="10" fill="url(#card)" stroke="#7C5CFC"/>
    <text x="20" y="32" fill="#E8ECF3" font-size="16" font-weight="700">implement — sub-check 7d enforced from Phase 0</text>
    <text x="20" y="52" fill="#8A93A2" font-size="11">model · claude-sonnet-4-6 · tier sonnet · thinking high</text>
    <text x="20" y="68" fill="#8A93A2" font-size="11">subagent · orchemist-implementer · fresh context</text>

    <!-- Verdict chips -->
    <g transform="translate(20, 90)">
      <rect width="92" height="22" rx="11" fill="#1B2A1F" stroke="#2DD4BF"/>
      <text x="46" y="14" font-size="10" font-weight="700" fill="#2DD4BF" text-anchor="middle">CONSUME · 3</text>
      <g transform="translate(102, 0)">
        <rect width="92" height="22" rx="11" fill="#22321F" stroke="#7C5CFC"/>
        <text x="46" y="14" font-size="10" font-weight="700" fill="#7C5CFC" text-anchor="middle">EXTEND · 1</text>
      </g>
      <g transform="translate(204, 0)">
        <rect width="92" height="22" rx="11" fill="#3B2E1F" stroke="#F59E0B"/>
        <text x="46" y="14" font-size="10" font-weight="700" fill="#F59E0B" text-anchor="middle">DIVERGENT · 0</text>
      </g>
      <g transform="translate(306, 0)">
        <rect width="92" height="22" rx="11" fill="#161A21" stroke="#5A6371"/>
        <text x="46" y="14" font-size="10" font-weight="700" fill="#8A93A2" text-anchor="middle">NEW-OK · 2</text>
      </g>
    </g>

    <text x="20" y="146" font-size="11" fill="#7C5CFC" text-decoration="underline">view spec.md</text>
    <text x="106" y="146" font-size="11" fill="#7C5CFC" text-decoration="underline">behavioral.md</text>
    <text x="202" y="146" font-size="11" fill="#7C5CFC" text-decoration="underline">acceptance_tests.py</text>

    <!-- Live log stream -->
    <g transform="translate(0, 176)">
      <rect width="492" height="356" rx="10" fill="url(#card)" stroke="#20242C"/>
      <text x="20" y="28" fill="#E8ECF3" font-size="14" font-weight="700">Live tool-call stream</text>
      <text x="20" y="44" fill="#8A93A2" font-size="11">SSE · 23 calls / ~100 est · MAX_TOOL_ITERATIONS=100</text>

      <g font-size="11" font-family="ui-monospace, 'Cascadia Code', monospace" fill="#8A93A2">
        <text x="20" y="76" fill="#5A6371">[14m 12s]</text>
        <text x="100" y="76">read_file src/orchestration_engine/verdict_parser.py</text>
        <text x="20" y="94" fill="#5A6371">[14m 14s]</text>
        <text x="100" y="94" fill="#2DD4BF">→ 224 lines · CONSUME verdict</text>
        <text x="20" y="116" fill="#5A6371">[14m 18s]</text>
        <text x="100" y="116">grep -n "extract_verdict" src/</text>
        <text x="20" y="134" fill="#5A6371">[14m 19s]</text>
        <text x="100" y="134" fill="#F59E0B">→ 2 hits · review_parser.py:88 (dup risk #687)</text>
        <text x="20" y="156" fill="#5A6371">[14m 24s]</text>
        <text x="100" y="156">edit_file src/.../review_parser.py · delete extract_verdict</text>
        <text x="20" y="174" fill="#5A6371">[14m 25s]</text>
        <text x="100" y="174" fill="#2DD4BF">→ 36 lines removed</text>
        <text x="20" y="196" fill="#5A6371">[14m 28s]</text>
        <text x="100" y="196">edit_file src/.../review_parser.py · add re-export</text>
        <text x="20" y="218" fill="#5A6371">[14m 30s]</text>
        <text x="100" y="218" fill="#2DD4BF">→ 3 lines added</text>
        <text x="20" y="240" fill="#5A6371">[14m 34s]</text>
        <text x="100" y="240">bash python3 -m pytest tests/test_verdict_parser.py -q</text>
        <text x="20" y="258" fill="#5A6371">[14m 38s]</text>
        <text x="100" y="258" fill="#7C5CFC">→ 23 passed · running…</text>

        <circle cx="100" cy="290" r="3" fill="#7C5CFC">
          <animate attributeName="opacity" values="0.4;1;0.4" dur="1s" repeatCount="indefinite"/>
        </circle>
        <text x="112" y="294" fill="#7C5CFC">awaiting next tool call</text>
      </g>
    </g>
  </g>

  <!-- Right panel: artifacts + cost + confidence -->
  <g transform="translate(1116, 88)" font-size="11">
    <!-- Artifacts card -->
    <rect width="300" height="216" rx="10" fill="url(#card)" stroke="#20242C"/>
    <text x="20" y="28" fill="#E8ECF3" font-size="14" font-weight="700">Run artifacts</text>
    <text x="20" y="44" fill="#8A93A2">.orchemist/runs/b90a3719/</text>
    <g transform="translate(20, 70)" font-size="11">
      <text x="0" y="0" fill="#2DD4BF">✓</text>
      <text x="20" y="0" fill="#E8ECF3" text-decoration="underline">existing_symbols.md</text>
      <text x="280" y="0" fill="#5A6371" text-anchor="end">2.1 kB</text>
      <text x="0" y="20" fill="#2DD4BF">✓</text>
      <text x="20" y="20" fill="#E8ECF3" text-decoration="underline">spec.md</text>
      <text x="280" y="20" fill="#5A6371" text-anchor="end">3.4 kB</text>
      <text x="0" y="40" fill="#2DD4BF">✓</text>
      <text x="20" y="40" fill="#E8ECF3" text-decoration="underline">behavioral.md</text>
      <text x="280" y="40" fill="#5A6371" text-anchor="end">2.8 kB</text>
      <text x="0" y="60" fill="#2DD4BF">✓</text>
      <text x="20" y="60" fill="#E8ECF3" text-decoration="underline">spec_adversary.md</text>
      <text x="280" y="60" fill="#5A6371" text-anchor="end">5.0 kB</text>
      <text x="0" y="80" fill="#2DD4BF">✓</text>
      <text x="20" y="80" fill="#E8ECF3" text-decoration="underline">acceptance_tests.py</text>
      <g transform="translate(160, 70)">
        <rect width="36" height="14" rx="7" fill="#1B2A1F" stroke="#2DD4BF"/>
        <text x="18" y="10" font-size="8" font-weight="700" fill="#2DD4BF" text-anchor="middle">SEALED</text>
      </g>
      <text x="280" y="80" fill="#5A6371" text-anchor="end">4.6 kB</text>
      <text x="0" y="100" fill="#7C5CFC">●</text>
      <text x="20" y="100" fill="#E8ECF3">implement.md</text>
      <text x="280" y="100" fill="#5A6371" text-anchor="end">writing…</text>
      <text x="0" y="120" fill="#5A6371">○</text>
      <text x="20" y="120" fill="#8A93A2">review.md</text>
      <text x="280" y="120" fill="#5A6371" text-anchor="end">queued</text>
    </g>

    <!-- Cost + confidence -->
    <g transform="translate(0, 232)">
      <rect width="300" height="160" rx="10" fill="url(#card)" stroke="#20242C"/>
      <text x="20" y="28" fill="#E8ECF3" font-size="14" font-weight="700">Cost &amp; confidence</text>

      <!-- mini sparkline confidence -->
      <text x="20" y="56" font-size="10" letter-spacing="2" fill="#5A6371">CONFIDENCE TREND</text>
      <polyline points="20,118 60,108 100,90 140,86 180,82 220,76 260,68 280,62" fill="none" stroke="#2DD4BF" stroke-width="2"/>
      <circle cx="280" cy="62" r="3" fill="#2DD4BF"/>
      <text x="280" y="56" font-size="11" font-weight="700" fill="#2DD4BF" text-anchor="end">0.91</text>

      <text x="20" y="140" font-size="11" fill="#8A93A2">$1.82 / $8.00 budget</text>
      <rect x="20" y="146" width="260" height="6" rx="3" fill="#20242C"/>
      <rect x="20" y="146" width="60" height="6" rx="3" fill="url(#brand)"/>
    </g>

    <!-- Drift indicator -->
    <g transform="translate(0, 408)">
      <rect width="300" height="124" rx="10" fill="url(#card)" stroke="#20242C"/>
      <text x="20" y="28" fill="#E8ECF3" font-size="14" font-weight="700">Jaccard drift (last 5 turns)</text>
      <text x="20" y="44" fill="#8A93A2" font-size="11">threshold 0.95 · 2 consecutive → converged</text>
      <g font-size="11">
        <text x="20" y="74" fill="#E8ECF3">R1 ↔ R2</text>
        <rect x="100" y="62" width="100" height="16" rx="3" fill="#20242C"/>
        <rect x="100" y="62" width="62" height="16" rx="3" fill="#F59E0B"/>
        <text x="208" y="74" fill="#F59E0B">0.62</text>
        <text x="20" y="98" fill="#E8ECF3">R2 ↔ R3</text>
        <rect x="100" y="86" width="100" height="16" rx="3" fill="#20242C"/>
        <rect x="100" y="86" width="93" height="16" rx="3" fill="#2DD4BF"/>
        <text x="208" y="98" fill="#2DD4BF">0.93</text>
      </g>
    </g>
  </g>

  <!-- Bottom: command bar -->
  <g transform="translate(604, 548)" font-size="11">
    <rect width="492" height="288" rx="10" fill="url(#card)" stroke="#20242C"/>
    <text x="20" y="28" fill="#E8ECF3" font-size="14" font-weight="700">Phase 0 inventory · this run</text>
    <text x="20" y="44" fill="#8A93A2">41 symbols across 4 sections · drives sub-check 7d at every phase</text>

    <g transform="translate(20, 76)" font-size="11">
      <text x="0" y="0" fill="#5A6371" font-size="10" letter-spacing="1">UI PRIMITIVES (18)</text>
      <text x="0" y="20" fill="#E8ECF3">Badge · Button · Spinner · …</text>
      <text x="0" y="44" fill="#5A6371" font-size="10" letter-spacing="1">SHARED LIBS (4)</text>
      <text x="0" y="64" fill="#E8ECF3">verdict_parser · cost_tracker · file_guard · git_integration</text>
      <text x="0" y="88" fill="#5A6371" font-size="10" letter-spacing="1">ADJACENT PATTERNS (7)</text>
      <text x="0" y="108" fill="#E8ECF3">phase_dispatch · subagent_invocation · sse_emit · …</text>
      <text x="0" y="132" fill="#5A6371" font-size="10" letter-spacing="1">WORKSPACE BARRELS (12)</text>
      <text x="0" y="152" fill="#E8ECF3">src/orchestration_engine/__init__.py exports …</text>
    </g>

    <text x="20" y="262" font-size="10" fill="#5A6371">→ duplicates-audit referenced: <tspan fill="#7C5CFC" text-decoration="underline">DUPLICATES.md group 1 (verdict)</tspan></text>
  </g>

  <!-- Bottom status -->
  <rect x="240" y="868" width="1200" height="32" fill="#0E1115" stroke="#1F2329" stroke-width="1"/>
  <g font-size="10" fill="#8A93A2">
    <circle cx="260" cy="884" r="3" fill="#2DD4BF"/>
    <text x="272" y="887">engine 0.9.0 · daemon up 3d 4h · run b90a3719</text>
    <circle cx="540" cy="884" r="3" fill="#2DD4BF"/>
    <text x="552" y="887">openrouter · 23/100 tool iter · slot 2/4</text>
    <text x="1416" y="887" text-anchor="end" fill="#5A6371">screen 2 / 6 · 2026-05-24</text>
  </g>
</svg>
