<svg xmlns="http://www.w3.org/2000/svg" viewBox="0 0 1440 900" font-family="ui-sans-serif, system-ui, -apple-system" fill="#E8ECF3">
  <!-- ====== Screen 3 of 6: Adversary / Dialogue Loop Visualizer ====== -->
  <defs>
    <linearGradient id="brand" x1="0" y1="0" x2="1" y2="0">
      <stop offset="0%" stop-color="#7C5CFC"/>
      <stop offset="100%" stop-color="#2DD4BF"/>
    </linearGradient>
    <linearGradient id="card" x1="0" y1="0" x2="0" y2="1">
      <stop offset="0%" stop-color="#1B1F26"/>
      <stop offset="100%" stop-color="#14171C"/>
    </linearGradient>
    <linearGradient id="drafter" x1="0" y1="0" x2="0" y2="1">
      <stop offset="0%" stop-color="#1F1B2E"/>
      <stop offset="100%" stop-color="#181425"/>
    </linearGradient>
    <linearGradient id="reviewer" x1="0" y1="0" x2="0" y2="1">
      <stop offset="0%" stop-color="#1A2A28"/>
      <stop offset="100%" stop-color="#142220"/>
    </linearGradient>
    <pattern id="grid" width="40" height="40" patternUnits="userSpaceOnUse">
      <path d="M 40 0 L 0 0 0 40" fill="none" stroke="#1A1E25" stroke-width="0.5"/>
    </pattern>
  </defs>

  <rect width="1440" height="900" fill="#0B0D10"/>
  <rect width="1440" height="900" fill="url(#grid)" opacity="0.4"/>

  <!-- Left rail -->
  <rect x="0" y="0" width="240" height="900" fill="#0E1115" stroke="#1F2329" stroke-width="1"/>
  <text x="24" y="44" font-size="18" font-weight="800" fill="url(#brand)">ORCHEMIST</text>
  <text x="24" y="62" font-size="10" font-weight="500" fill="#8A93A2" letter-spacing="2">HARNESS · LEVEL 5</text>
  <g font-size="13" font-weight="600">
    <g transform="translate(0, 100)" fill="#8A93A2">
      <circle cx="32" cy="18" r="4" fill="none" stroke="#5A6371"/>
      <text x="52" y="22">Fleet Dashboard</text><text x="206" y="22" fill="#5A6371" font-size="11" text-anchor="end">⌘1</text>
    </g>
    <g transform="translate(0, 144)" fill="#8A93A2">
      <circle cx="32" cy="18" r="4" fill="none" stroke="#5A6371"/>
      <text x="52" y="22">Run Cockpit</text><text x="206" y="22" fill="#5A6371" font-size="11" text-anchor="end">⌘2</text>
    </g>
    <g transform="translate(0, 184)">
      <rect x="12" y="0" width="216" height="36" rx="6" fill="#161A21" stroke="#7C5CFC" stroke-width="1.5"/>
      <circle cx="32" cy="18" r="4" fill="#7C5CFC"/>
      <text x="52" y="22" fill="#E8ECF3">Adversary Loop</text>
      <text x="206" y="22" fill="#5A6371" font-size="11" text-anchor="end">⌘3</text>
    </g>
    <g transform="translate(0, 224)" fill="#8A93A2">
      <circle cx="32" cy="18" r="4" fill="none" stroke="#5A6371"/>
      <text x="52" y="22">Trust &amp; Gates</text><text x="206" y="22" fill="#5A6371" font-size="11" text-anchor="end">⌘4</text>
    </g>
    <g transform="translate(0, 264)" fill="#8A93A2">
      <circle cx="32" cy="18" r="4" fill="none" stroke="#5A6371"/>
      <text x="52" y="22">Admin / Activation</text><text x="206" y="22" fill="#5A6371" font-size="11" text-anchor="end">⌘5</text>
    </g>
    <g transform="translate(0, 304)" fill="#8A93A2">
      <circle cx="32" cy="18" r="4" fill="none" stroke="#5A6371"/>
      <text x="52" y="22">Skills Pack Mode</text><text x="206" y="22" fill="#5A6371" font-size="11" text-anchor="end">⌘6</text>
    </g>

    <!-- Recent dialogues -->
    <text x="24" y="380" font-size="10" letter-spacing="2" fill="#5A6371" font-weight="600">RECENT DIALOGUES (4)</text>
    <g transform="translate(24, 400)" font-size="11" fill="#8A93A2">
      <text x="0" y="0">#802 · spec_adv R2 · live</text>
      <text x="0" y="22">#799 · spec_adv R3 · escalated</text>
      <text x="0" y="44">#770 · review · APPROVED</text>
      <text x="0" y="66">#677 · dialogue PR #808 · WIP</text>
    </g>
  </g>

  <!-- Top bar -->
  <rect x="240" y="0" width="1200" height="64" fill="#0E1115" stroke="#1F2329" stroke-width="1"/>
  <text x="264" y="28" font-size="11" fill="#5A6371">
    <tspan fill="#7C5CFC" text-decoration="underline">Fleet</tspan> /
    <tspan fill="#7C5CFC" text-decoration="underline">Run b90a3719</tspan> /
  </text>
  <text x="438" y="28" font-size="11" fill="#E8ECF3" font-weight="600">Adversary Loop · 1c spec_adversary</text>
  <text x="264" y="48" font-size="20" font-weight="700" fill="#E8ECF3">Cross-model dialogue · drafter ↔ reviewer</text>

  <!-- Verdict pill -->
  <g transform="translate(1060, 18)" font-size="11">
    <rect width="118" height="28" rx="14" fill="#1B2A1F" stroke="#2DD4BF"/>
    <circle cx="16" cy="14" r="4" fill="#2DD4BF"/>
    <text x="30" y="18" font-weight="700" fill="#2DD4BF">APPROVED · R2</text>
  </g>
  <g transform="translate(1190, 18)" font-size="11">
    <rect width="80" height="28" rx="6" fill="#1B1F26" stroke="#20242C"/>
    <text x="40" y="18" fill="#E8ECF3" text-anchor="middle">Export ↗</text>
  </g>
  <g transform="translate(1278, 18)" font-size="11">
    <rect width="92" height="28" rx="6" fill="#1B1F26" stroke="#7C5CFC"/>
    <text x="46" y="18" fill="#7C5CFC" text-anchor="middle">Replay run</text>
  </g>
  <circle cx="1395" cy="32" r="14" fill="url(#brand)"/>
  <text x="1395" y="36" font-size="11" font-weight="700" fill="#0B0D10" text-anchor="middle">RR</text>

  <!-- ===== Header strip: model identities ===== -->
  <g transform="translate(264, 88)">
    <rect width="1152" height="76" rx="10" fill="url(#card)" stroke="#20242C"/>

    <!-- Drafter -->
    <g transform="translate(20, 18)">
      <rect width="540" height="40" rx="6" fill="url(#drafter)" stroke="#7C5CFC"/>
      <text x="16" y="16" font-size="10" letter-spacing="2" fill="#8A93A2">DRAFTER</text>
      <text x="16" y="32" fill="#E8ECF3" font-weight="700">claude-sonnet-4-6 · spec author</text>
      <text x="240" y="20" font-size="10" letter-spacing="2" fill="#8A93A2">CONTEXT</text>
      <text x="240" y="32" fill="#E8ECF3" font-size="11">fresh per round · no reviewer history carry</text>
    </g>

    <!-- arrow -->
    <g transform="translate(572, 38)" fill="#8A93A2" font-size="14">
      <text x="0" y="0">⇆</text>
    </g>

    <!-- Reviewer -->
    <g transform="translate(592, 18)">
      <rect width="540" height="40" rx="6" fill="url(#reviewer)" stroke="#2DD4BF"/>
      <text x="16" y="16" font-size="10" letter-spacing="2" fill="#8A93A2">REVIEWER · DIFFERENT FAMILY</text>
      <text x="16" y="32" fill="#E8ECF3" font-weight="700">gemini-3-pro · deep-think (Track B)</text>
      <text x="324" y="20" font-size="10" letter-spacing="2" fill="#8A93A2">CONTEXT</text>
      <text x="324" y="32" fill="#E8ECF3" font-size="11">fresh per round · adversary subagent type</text>
    </g>
  </g>

  <!-- ===== Round columns ===== -->
  <g transform="translate(264, 184)">
    <!-- Round labels -->
    <g font-size="10" letter-spacing="2" fill="#8A93A2">
      <text x="20" y="24">ROUND 1 · 14:02 UTC</text>
      <text x="404" y="24">ROUND 2 · 14:14 UTC</text>
      <text x="788" y="24">ROUND 3 · convergence</text>
    </g>

    <!-- ROUND 1 -->
    <g transform="translate(0, 40)">
      <!-- Drafter bubble -->
      <rect x="0" y="0" width="368" height="148" rx="10" fill="url(#drafter)" stroke="#7C5CFC"/>
      <text x="16" y="22" font-size="10" letter-spacing="2" fill="#7C5CFC">DRAFTER · spec.md</text>
      <text x="16" y="44" fill="#E8ECF3" font-size="11" font-weight="600">Proposes: 4 new files, no consume verdict</text>
      <text x="16" y="64" fill="#8A93A2" font-size="11">- src/.../verdict_extract.py (new)</text>
      <text x="16" y="80" fill="#8A93A2" font-size="11">- src/.../verdict_normalize.py (new)</text>
      <text x="16" y="96" fill="#8A93A2" font-size="11">- 2 dependent test files (new)</text>
      <text x="16" y="120" fill="#5A6371" font-size="10">cost $0.18 · 1m 02s · 1.3k in / 480 out</text>

      <!-- Reviewer bubble -->
      <rect x="0" y="160" width="368" height="180" rx="10" fill="url(#reviewer)" stroke="#2DD4BF"/>
      <text x="16" y="182" font-size="10" letter-spacing="2" fill="#2DD4BF">REVIEWER · spec_adversary.md</text>
      <text x="16" y="204" fill="#E8ECF3" font-size="11" font-weight="600">VERDICT · REVISE</text>
      <g transform="translate(16, 218)" font-size="11">
        <rect width="74" height="18" rx="9" fill="#2A1F1F" stroke="#EF4444"/>
        <text x="37" y="12" font-size="9" font-weight="700" fill="#EF4444" text-anchor="middle">7d divergence</text>
      </g>
      <text x="16" y="252" fill="#8A93A2" font-size="11">"verdict_extract overlaps verdict_parser.py:88;</text>
      <text x="16" y="268" fill="#8A93A2" font-size="11"> verdict label is CONSUME, not NEW-OK."</text>
      <text x="16" y="284" fill="#8A93A2" font-size="11">"verdict_normalize is EXTEND (parameterize</text>
      <text x="16" y="300" fill="#8A93A2" font-size="11"> existing extract_verdict, do not duplicate)."</text>
      <text x="16" y="324" fill="#5A6371" font-size="10">cost $0.34 · 1m 58s · 2.6k in / 920 out</text>
    </g>

    <!-- Arrow R1→R2 -->
    <g transform="translate(380, 200)" stroke="#5A6371" fill="none">
      <line x1="0" y1="0" x2="20" y2="0" stroke-width="2"/>
      <polyline points="14,-5 20,0 14,5"/>
    </g>

    <!-- ROUND 2 -->
    <g transform="translate(404, 40)">
      <!-- Drafter bubble -->
      <rect x="0" y="0" width="368" height="148" rx="10" fill="url(#drafter)" stroke="#7C5CFC"/>
      <text x="16" y="22" font-size="10" letter-spacing="2" fill="#7C5CFC">DRAFTER · spec.md v2</text>
      <text x="16" y="44" fill="#E8ECF3" font-size="11" font-weight="600">Revised: 1 EXTEND, 2 CONSUME, 0 new files</text>
      <text x="16" y="64" fill="#8A93A2" font-size="11">- verdict_parser.extract_verdict EXTEND</text>
      <text x="16" y="80" fill="#8A93A2" font-size="11">  (add label=CONSUME|EXTEND param)</text>
      <text x="16" y="96" fill="#8A93A2" font-size="11">- review_parser CONSUME (re-export)</text>
      <text x="16" y="120" fill="#5A6371" font-size="10">cost $0.14 · 48s · diff vs R1: -3 files, +1 sig change</text>

      <!-- Reviewer bubble -->
      <rect x="0" y="160" width="368" height="180" rx="10" fill="url(#reviewer)" stroke="#2DD4BF"/>
      <text x="16" y="182" font-size="10" letter-spacing="2" fill="#2DD4BF">REVIEWER · spec_adversary.md v2</text>
      <text x="16" y="204" fill="#E8ECF3" font-size="11" font-weight="600">VERDICT · APPROVE</text>
      <g transform="translate(16, 218)" font-size="11">
        <rect width="68" height="18" rx="9" fill="#1B2A1F" stroke="#2DD4BF"/>
        <text x="34" y="12" font-size="9" font-weight="700" fill="#2DD4BF" text-anchor="middle">7d resolved</text>
        <g transform="translate(76, 0)">
          <rect width="72" height="18" rx="9" fill="#22321F" stroke="#7C5CFC"/>
          <text x="36" y="12" font-size="9" font-weight="700" fill="#7C5CFC" text-anchor="middle">EXTEND ok</text>
        </g>
      </g>
      <text x="16" y="252" fill="#8A93A2" font-size="11">"Spec now anchored to verdict_parser:88;</text>
      <text x="16" y="268" fill="#8A93A2" font-size="11"> EXTEND signature widens correctly without</text>
      <text x="16" y="284" fill="#8A93A2" font-size="11"> breaking existing callers (3 sites verified)."</text>
      <text x="16" y="324" fill="#5A6371" font-size="10">cost $0.28 · 1m 24s · 2.1k in / 640 out</text>
    </g>

    <!-- Arrow R2→R3 -->
    <g transform="translate(784, 200)" stroke="#5A6371" fill="none">
      <line x1="0" y1="0" x2="20" y2="0" stroke-width="2"/>
      <polyline points="14,-5 20,0 14,5"/>
    </g>

    <!-- ROUND 3 (convergence note) -->
    <g transform="translate(808, 40)">
      <rect x="0" y="0" width="344" height="340" rx="10" fill="url(#card)" stroke="#2DD4BF" stroke-dasharray="4 4"/>
      <text x="16" y="28" font-size="14" font-weight="700" fill="#2DD4BF">Convergence reached at R2</text>
      <text x="16" y="48" font-size="11" fill="#8A93A2">no R3 needed · jaccard 0.93 ≥ 0.95 within tolerance · 2 consecutive APPROVE pairs</text>

      <text x="16" y="92" font-size="10" letter-spacing="2" fill="#5A6371">CONVERGENCE METRIC</text>
      <text x="16" y="116" font-size="11" fill="#8A93A2">Jaccard(spec.md R1, spec.md R2)</text>
      <text x="16" y="140" font-size="32" font-weight="700" fill="#2DD4BF">0.93</text>
      <text x="86" y="140" font-size="11" fill="#5A6371">threshold 0.95</text>

      <text x="16" y="184" font-size="10" letter-spacing="2" fill="#5A6371">VERDICT TIMELINE</text>
      <g transform="translate(16, 200)" font-size="11">
        <rect width="14" height="14" rx="3" fill="#EF4444"/>
        <text x="22" y="11" fill="#E8ECF3">R1 REVISE</text>
        <text x="120" y="11" fill="#5A6371" font-size="10">[divergence][7d]</text>
        <g transform="translate(0, 20)">
          <rect width="14" height="14" rx="3" fill="#2DD4BF"/>
          <text x="22" y="11" fill="#E8ECF3">R2 APPROVE</text>
          <text x="120" y="11" fill="#5A6371" font-size="10">no findings</text>
        </g>
      </g>

      <text x="16" y="276" font-size="10" letter-spacing="2" fill="#5A6371">DOWNSTREAM HANDOFF</text>
      <text x="16" y="296" font-size="11" fill="#8A93A2">writes spec.md (sealed) →</text>
      <text x="16" y="312" font-size="11" fill="#7C5CFC" text-decoration="underline">acceptance_test phase ⌘2</text>
    </g>
  </g>

  <!-- ===== Bottom: turn-by-turn cost table ===== -->
  <g transform="translate(264, 600)">
    <rect width="1152" height="236" rx="10" fill="url(#card)" stroke="#20242C"/>
    <text x="20" y="28" fill="#E8ECF3" font-size="14" font-weight="700">Per-turn ledger · why this loop is defensible IP</text>
    <text x="20" y="44" fill="#8A93A2" font-size="11">cross-model adversary at phase boundary · no competitor in the 2026 SDD market ships this</text>

    <!-- Header -->
    <g transform="translate(20, 72)" font-size="10" fill="#5A6371" letter-spacing="1">
      <text x="0" y="0">TURN</text>
      <text x="80" y="0">SIDE</text>
      <text x="180" y="0">MODEL</text>
      <text x="380" y="0">TOKENS IN/OUT</text>
      <text x="560" y="0">COST $</text>
      <text x="680" y="0">VERDICT</text>
      <text x="830" y="0">JACCARD vs PREV</text>
      <text x="1010" y="0" text-anchor="end">FINDINGS</text>
      <line x1="0" y1="8" x2="1100" y2="8" stroke="#20242C"/>
    </g>

    <g transform="translate(20, 96)" font-size="12">
      <text x="0" y="0" fill="#E8ECF3">R1·1</text>
      <text x="80" y="0" fill="#7C5CFC">drafter</text>
      <text x="180" y="0" fill="#E8ECF3">claude-sonnet-4-6</text>
      <text x="380" y="0" fill="#E8ECF3">1300 / 480</text>
      <text x="560" y="0" fill="#E8ECF3">0.18</text>
      <text x="680" y="0" fill="#8A93A2">draft</text>
      <text x="830" y="0" fill="#5A6371">—</text>
      <text x="1010" y="0" fill="#5A6371" text-anchor="end">—</text>
    </g>
    <g transform="translate(20, 122)" font-size="12">
      <text x="0" y="0" fill="#E8ECF3">R1·2</text>
      <text x="80" y="0" fill="#2DD4BF">reviewer</text>
      <text x="180" y="0" fill="#E8ECF3">gemini-3-pro</text>
      <text x="380" y="0" fill="#E8ECF3">2600 / 920</text>
      <text x="560" y="0" fill="#E8ECF3">0.34</text>
      <text x="680" y="0" fill="#EF4444">REVISE</text>
      <text x="830" y="0" fill="#5A6371">—</text>
      <text x="1010" y="0" fill="#EF4444" text-anchor="end">2 · 7d / verdict label</text>
    </g>
    <g transform="translate(20, 148)" font-size="12">
      <text x="0" y="0" fill="#E8ECF3">R2·1</text>
      <text x="80" y="0" fill="#7C5CFC">drafter</text>
      <text x="180" y="0" fill="#E8ECF3">claude-sonnet-4-6</text>
      <text x="380" y="0" fill="#E8ECF3">1400 / 520</text>
      <text x="560" y="0" fill="#E8ECF3">0.14</text>
      <text x="680" y="0" fill="#8A93A2">revised</text>
      <text x="830" y="0" fill="#F59E0B">0.62</text>
      <text x="1010" y="0" fill="#5A6371" text-anchor="end">—</text>
    </g>
    <g transform="translate(20, 174)" font-size="12">
      <text x="0" y="0" fill="#E8ECF3">R2·2</text>
      <text x="80" y="0" fill="#2DD4BF">reviewer</text>
      <text x="180" y="0" fill="#E8ECF3">gemini-3-pro</text>
      <text x="380" y="0" fill="#E8ECF3">2100 / 640</text>
      <text x="560" y="0" fill="#E8ECF3">0.28</text>
      <text x="680" y="0" fill="#2DD4BF">APPROVE</text>
      <text x="830" y="0" fill="#2DD4BF">0.93</text>
      <text x="1010" y="0" fill="#2DD4BF" text-anchor="end">0 · sealed</text>
    </g>

    <text x="20" y="212" font-size="10" fill="#5A6371">Total · 7400 tok in · 2560 tok out · $0.94 · 4m 12s · 2 rounds · APPROVE → handoff acceptance_test</text>
  </g>

  <!-- Bottom status -->
  <rect x="240" y="868" width="1200" height="32" fill="#0E1115" stroke="#1F2329" stroke-width="1"/>
  <g font-size="10" fill="#8A93A2">
    <circle cx="260" cy="884" r="3" fill="#2DD4BF"/>
    <text x="272" y="887">engine 0.9.0 · dialogue_phase v0.1 (PR #808 prototype)</text>
    <circle cx="582" cy="884" r="3" fill="#2DD4BF"/>
    <text x="594" y="887">cross-model adversary · the trust-engine wedge</text>
    <text x="1416" y="887" text-anchor="end" fill="#5A6371">screen 3 / 6 · 2026-05-24</text>
  </g>
</svg>
