<svg xmlns="http://www.w3.org/2000/svg" viewBox="0 0 1440 900" font-family="ui-sans-serif, system-ui, -apple-system" fill="#E8ECF3">
  <!-- ====== Screen 4 of 6: Trust Calibration & Gates Queue ====== -->
  <defs>
    <linearGradient id="brand" x1="0" y1="0" x2="1" y2="0">
      <stop offset="0%" stop-color="#7C5CFC"/>
      <stop offset="100%" stop-color="#2DD4BF"/>
    </linearGradient>
    <linearGradient id="card" x1="0" y1="0" x2="0" y2="1">
      <stop offset="0%" stop-color="#1B1F26"/>
      <stop offset="100%" stop-color="#14171C"/>
    </linearGradient>
    <pattern id="grid" width="40" height="40" patternUnits="userSpaceOnUse">
      <path d="M 40 0 L 0 0 0 40" fill="none" stroke="#1A1E25" stroke-width="0.5"/>
    </pattern>
  </defs>

  <rect width="1440" height="900" fill="#0B0D10"/>
  <rect width="1440" height="900" fill="url(#grid)" opacity="0.4"/>

  <!-- Left rail -->
  <rect x="0" y="0" width="240" height="900" fill="#0E1115" stroke="#1F2329" stroke-width="1"/>
  <text x="24" y="44" font-size="18" font-weight="800" fill="url(#brand)">ORCHEMIST</text>
  <text x="24" y="62" font-size="10" font-weight="500" fill="#8A93A2" letter-spacing="2">HARNESS · LEVEL 5</text>
  <g font-size="13" font-weight="600">
    <g transform="translate(0, 100)" fill="#8A93A2"><circle cx="32" cy="18" r="4" fill="none" stroke="#5A6371"/><text x="52" y="22">Fleet Dashboard</text><text x="206" y="22" fill="#5A6371" font-size="11" text-anchor="end">⌘1</text></g>
    <g transform="translate(0, 144)" fill="#8A93A2"><circle cx="32" cy="18" r="4" fill="none" stroke="#5A6371"/><text x="52" y="22">Run Cockpit</text><text x="206" y="22" fill="#5A6371" font-size="11" text-anchor="end">⌘2</text></g>
    <g transform="translate(0, 184)" fill="#8A93A2"><circle cx="32" cy="18" r="4" fill="none" stroke="#5A6371"/><text x="52" y="22">Adversary Loop</text><text x="206" y="22" fill="#5A6371" font-size="11" text-anchor="end">⌘3</text></g>
    <g transform="translate(0, 224)">
      <rect x="12" y="0" width="216" height="36" rx="6" fill="#161A21" stroke="#7C5CFC" stroke-width="1.5"/>
      <circle cx="32" cy="18" r="4" fill="#7C5CFC"/>
      <text x="52" y="22" fill="#E8ECF3">Trust &amp; Gates</text>
      <text x="206" y="22" fill="#5A6371" font-size="11" text-anchor="end">⌘4</text>
    </g>
    <g transform="translate(0, 264)" fill="#8A93A2"><circle cx="32" cy="18" r="4" fill="none" stroke="#5A6371"/><text x="52" y="22">Admin / Activation</text><text x="206" y="22" fill="#5A6371" font-size="11" text-anchor="end">⌘5</text></g>
    <g transform="translate(0, 304)" fill="#8A93A2"><circle cx="32" cy="18" r="4" fill="none" stroke="#5A6371"/><text x="52" y="22">Skills Pack Mode</text><text x="206" y="22" fill="#5A6371" font-size="11" text-anchor="end">⌘6</text></g>

    <!-- Filter chips -->
    <text x="24" y="400" font-size="10" letter-spacing="2" fill="#5A6371" font-weight="600">FILTER</text>
    <g transform="translate(24, 416)" font-size="11">
      <rect width="60" height="22" rx="11" fill="#1B1F26" stroke="#7C5CFC"/>
      <text x="30" y="14" fill="#7C5CFC" text-anchor="middle">all</text>
      <g transform="translate(68, 0)">
        <rect width="74" height="22" rx="11" fill="#1B1F26" stroke="#20242C"/>
        <text x="37" y="14" fill="#8A93A2" text-anchor="middle">pending</text>
      </g>
      <g transform="translate(0, 30)">
        <rect width="92" height="22" rx="11" fill="#1B1F26" stroke="#20242C"/>
        <text x="46" y="14" fill="#8A93A2" text-anchor="middle">auto-merged</text>
      </g>
      <g transform="translate(100, 30)">
        <rect width="60" height="22" rx="11" fill="#1B1F26" stroke="#20242C"/>
        <text x="30" y="14" fill="#8A93A2" text-anchor="middle">held</text>
      </g>
    </g>
  </g>

  <!-- Top bar -->
  <rect x="240" y="0" width="1200" height="64" fill="#0E1115" stroke="#1F2329" stroke-width="1"/>
  <text x="264" y="28" font-size="11" fill="#5A6371">
    <tspan fill="#7C5CFC" text-decoration="underline">Fleet</tspan> /
  </text>
  <text x="294" y="28" font-size="11" fill="#E8ECF3" font-weight="600">Trust &amp; Gates</text>
  <text x="264" y="48" font-size="20" font-weight="700" fill="#E8ECF3">7 gates need decision · trust calibration per (repo, template, task)</text>

  <g transform="translate(1170, 18)" font-size="11">
    <rect width="100" height="28" rx="6" fill="#1B1F26" stroke="#20242C"/>
    <text x="50" y="18" fill="#E8ECF3" text-anchor="middle">Export audit</text>
  </g>
  <g transform="translate(1278, 18)" font-size="11">
    <rect width="92" height="28" rx="6" fill="#1B1F26" stroke="#2DD4BF"/>
    <text x="46" y="18" fill="#2DD4BF" text-anchor="middle">Bulk approve</text>
  </g>
  <circle cx="1395" cy="32" r="14" fill="url(#brand)"/>
  <text x="1395" y="36" font-size="11" font-weight="700" fill="#0B0D10" text-anchor="middle">RR</text>

  <!-- Gates queue (top half) -->
  <g transform="translate(264, 88)">
    <rect width="816" height="436" rx="10" fill="url(#card)" stroke="#20242C"/>
    <text x="20" y="28" fill="#E8ECF3" font-size="14" font-weight="700">Approval queue</text>
    <text x="20" y="44" fill="#8A93A2" font-size="11">below threshold or human-review-only repos · oldest first</text>

    <!-- Header -->
    <g transform="translate(20, 78)" font-size="10" fill="#5A6371" letter-spacing="1">
      <text x="0" y="0">REPO · ISSUE</text>
      <text x="200" y="0">TEMPLATE</text>
      <text x="320" y="0">CONFIDENCE</text>
      <text x="460" y="0">THRESHOLD</text>
      <text x="580" y="0">WAITING</text>
      <text x="776" y="0" text-anchor="end">ACTION</text>
      <line x1="0" y1="8" x2="776" y2="8" stroke="#20242C"/>
    </g>

    <!-- Gate rows -->
    <g transform="translate(20, 110)" font-size="12">
      <!-- Row 1 -->
      <g>
        <text x="0" y="0" fill="#E8ECF3" font-weight="600">orchemist · #799</text>
        <text x="0" y="16" fill="#5A6371" font-size="10">verdict extraction format</text>
        <text x="200" y="0" fill="#8A93A2">coding-pipeline-standard</text>
        <text x="320" y="0" fill="#F59E0B">0.74</text>
        <text x="460" y="0" fill="#8A93A2">0.90</text>
        <text x="580" y="0" fill="#EF4444">2h 14m</text>
        <g transform="translate(600, -16)">
          <rect width="80" height="22" rx="4" fill="#1B2A1F" stroke="#2DD4BF"/>
          <text x="40" y="14" font-size="11" fill="#2DD4BF" text-anchor="middle">Approve</text>
        </g>
        <g transform="translate(688, -16)">
          <rect width="80" height="22" rx="4" fill="#2A1F1F" stroke="#EF4444"/>
          <text x="40" y="14" font-size="11" fill="#EF4444" text-anchor="middle">Reject</text>
        </g>
      </g>
      <!-- Row 2 -->
      <g transform="translate(0, 50)">
        <text x="0" y="0" fill="#E8ECF3" font-weight="600">project-dashboard · #12</text>
        <text x="0" y="16" fill="#5A6371" font-size="10">CSV export truncates rows &gt;10k</text>
        <text x="200" y="0" fill="#8A93A2">coding-pipeline-standard</text>
        <text x="320" y="0" fill="#F59E0B">0.86</text>
        <text x="460" y="0" fill="#8A93A2">0.90</text>
        <text x="580" y="0" fill="#F59E0B">48m</text>
        <g transform="translate(600, -16)">
          <rect width="80" height="22" rx="4" fill="#1B2A1F" stroke="#2DD4BF"/>
          <text x="40" y="14" font-size="11" fill="#2DD4BF" text-anchor="middle">Approve</text>
        </g>
        <g transform="translate(688, -16)">
          <rect width="80" height="22" rx="4" fill="#2A1F1F" stroke="#EF4444"/>
          <text x="40" y="14" font-size="11" fill="#EF4444" text-anchor="middle">Reject</text>
        </g>
      </g>
      <!-- Row 3 -->
      <g transform="translate(0, 100)">
        <text x="0" y="0" fill="#E8ECF3" font-weight="600">orchemist · #735</text>
        <text x="0" y="16" fill="#5A6371" font-size="10">content pipeline timeout race</text>
        <text x="200" y="0" fill="#8A93A2">coding-pipeline-skip-spec</text>
        <text x="320" y="0" fill="#F59E0B">0.81</text>
        <text x="460" y="0" fill="#8A93A2">0.90</text>
        <text x="580" y="0" fill="#F59E0B">34m</text>
        <g transform="translate(600, -16)">
          <rect width="80" height="22" rx="4" fill="#1B2A1F" stroke="#2DD4BF"/>
          <text x="40" y="14" font-size="11" fill="#2DD4BF" text-anchor="middle">Approve</text>
        </g>
        <g transform="translate(688, -16)">
          <rect width="80" height="22" rx="4" fill="#2A1F1F" stroke="#EF4444"/>
          <text x="40" y="14" font-size="11" fill="#EF4444" text-anchor="middle">Reject</text>
        </g>
      </g>
      <!-- Row 4 -->
      <g transform="translate(0, 150)">
        <text x="0" y="0" fill="#E8ECF3" font-weight="600">orchemist-website · build</text>
        <text x="0" y="16" fill="#5A6371" font-size="10">image regen step retried twice</text>
        <text x="200" y="0" fill="#8A93A2">deps-pipeline-v1</text>
        <text x="320" y="0" fill="#F59E0B">0.69</text>
        <text x="460" y="0" fill="#8A93A2">0.90</text>
        <text x="580" y="0" fill="#F59E0B">22m</text>
        <g transform="translate(600, -16)">
          <rect width="80" height="22" rx="4" fill="#1B2A1F" stroke="#2DD4BF"/>
          <text x="40" y="14" font-size="11" fill="#2DD4BF" text-anchor="middle">Approve</text>
        </g>
        <g transform="translate(688, -16)">
          <rect width="80" height="22" rx="4" fill="#2A1F1F" stroke="#EF4444"/>
          <text x="40" y="14" font-size="11" fill="#EF4444" text-anchor="middle">Reject</text>
        </g>
      </g>
      <!-- Row 5 -->
      <g transform="translate(0, 200)">
        <text x="0" y="0" fill="#E8ECF3" font-weight="600">orchemist · #806</text>
        <text x="0" y="16" fill="#5A6371" font-size="10">skills pack pivot follow-ups</text>
        <text x="200" y="0" fill="#8A93A2">coding-pipeline-standard</text>
        <text x="320" y="0" fill="#2DD4BF">0.92</text>
        <text x="460" y="0" fill="#8A93A2">0.90</text>
        <text x="580" y="0" fill="#8A93A2">11m</text>
        <g transform="translate(600, -16)">
          <rect width="80" height="22" rx="4" fill="#1B2A1F" stroke="#2DD4BF"/>
          <text x="40" y="14" font-size="11" fill="#2DD4BF" text-anchor="middle">Approve</text>
        </g>
        <g transform="translate(688, -16)">
          <rect width="80" height="22" rx="4" fill="#2A1F1F" stroke="#EF4444"/>
          <text x="40" y="14" font-size="11" fill="#EF4444" text-anchor="middle">Reject</text>
        </g>
      </g>

      <text x="0" y="270" font-size="10" fill="#5A6371">+ 2 more · cursor end of queue</text>
    </g>
  </g>

  <!-- Right: trust matrix -->
  <g transform="translate(1104, 88)">
    <rect width="312" height="436" rx="10" fill="url(#card)" stroke="#20242C"/>
    <text x="20" y="28" fill="#E8ECF3" font-size="14" font-weight="700">Trust profiles</text>
    <text x="20" y="44" fill="#8A93A2" font-size="11">per (repo, template, task_type)</text>

    <g transform="translate(20, 76)" font-size="11">
      <g>
        <text x="0" y="0" fill="#E8ECF3" font-weight="600">orchemist · coding · feature</text>
        <rect x="0" y="8" width="272" height="6" rx="3" fill="#20242C"/>
        <rect x="0" y="8" width="244" height="6" rx="3" fill="#2DD4BF"/>
        <text x="272" y="32" font-size="10" fill="#5A6371" text-anchor="end">0.90 ≥ 0.90 (auto)</text>
      </g>
      <g transform="translate(0, 56)">
        <text x="0" y="0" fill="#E8ECF3" font-weight="600">orchemist · coding · bug</text>
        <rect x="0" y="8" width="272" height="6" rx="3" fill="#20242C"/>
        <rect x="0" y="8" width="252" height="6" rx="3" fill="#2DD4BF"/>
        <text x="272" y="32" font-size="10" fill="#5A6371" text-anchor="end">0.93 ≥ 0.90 (auto)</text>
      </g>
      <g transform="translate(0, 112)">
        <text x="0" y="0" fill="#E8ECF3" font-weight="600">orchemist-website · content</text>
        <rect x="0" y="8" width="272" height="6" rx="3" fill="#20242C"/>
        <rect x="0" y="8" width="186" height="6" rx="3" fill="#F59E0B"/>
        <text x="272" y="32" font-size="10" fill="#5A6371" text-anchor="end">0.68 &lt; 0.85 (hold)</text>
      </g>
      <g transform="translate(0, 168)">
        <text x="0" y="0" fill="#E8ECF3" font-weight="600">project-dashboard · coding</text>
        <rect x="0" y="8" width="272" height="6" rx="3" fill="#20242C"/>
        <rect x="0" y="8" width="220" height="6" rx="3" fill="#F59E0B"/>
        <text x="272" y="32" font-size="10" fill="#5A6371" text-anchor="end">0.81 &lt; 0.90 (hold)</text>
      </g>
      <g transform="translate(0, 224)">
        <text x="0" y="0" fill="#E8ECF3" font-weight="600">orchemist · docs</text>
        <rect x="0" y="8" width="272" height="6" rx="3" fill="#20242C"/>
        <rect x="0" y="8" width="262" height="6" rx="3" fill="#2DD4BF"/>
        <text x="272" y="32" font-size="10" fill="#5A6371" text-anchor="end">0.96 ≥ 0.80 (auto)</text>
      </g>
      <g transform="translate(0, 280)">
        <text x="0" y="0" fill="#E8ECF3" font-weight="600">orchemist · refactor</text>
        <rect x="0" y="8" width="272" height="6" rx="3" fill="#20242C"/>
        <rect x="0" y="8" width="40" height="6" rx="3" fill="#EF4444"/>
        <text x="272" y="32" font-size="10" fill="#5A6371" text-anchor="end">0.15 · review-all</text>
      </g>
    </g>

    <text x="20" y="408" font-size="10" fill="#5A6371">→ adjust threshold per profile in <tspan fill="#7C5CFC" text-decoration="underline">Admin ⌘5</tspan></text>
  </g>

  <!-- Bottom: confidence calibration curve + recent decisions -->
  <g transform="translate(264, 540)">
    <rect width="540" height="296" rx="10" fill="url(#card)" stroke="#20242C"/>
    <text x="20" y="28" fill="#E8ECF3" font-size="14" font-weight="700">Calibration curve · last 14 days</text>
    <text x="20" y="44" fill="#8A93A2" font-size="11">predicted confidence vs actual post-merge success</text>

    <!-- chart -->
    <g transform="translate(60, 76)">
      <!-- axes -->
      <line x1="0" y1="160" x2="440" y2="160" stroke="#20242C"/>
      <line x1="0" y1="0" x2="0" y2="160" stroke="#20242C"/>
      <!-- diagonal ideal -->
      <line x1="0" y1="160" x2="440" y2="0" stroke="#5A6371" stroke-dasharray="4 4"/>
      <!-- data points (binned confidence vs success rate) -->
      <circle cx="44" cy="148" r="5" fill="#7C5CFC"/>
      <circle cx="88" cy="132" r="5" fill="#7C5CFC"/>
      <circle cx="132" cy="118" r="5" fill="#7C5CFC"/>
      <circle cx="176" cy="92" r="5" fill="#7C5CFC"/>
      <circle cx="220" cy="74" r="5" fill="#7C5CFC"/>
      <circle cx="264" cy="56" r="5" fill="#2DD4BF"/>
      <circle cx="308" cy="42" r="5" fill="#2DD4BF"/>
      <circle cx="352" cy="28" r="5" fill="#2DD4BF"/>
      <circle cx="396" cy="14" r="5" fill="#2DD4BF"/>
      <!-- labels -->
      <text x="0" y="178" font-size="10" fill="#5A6371">0.50</text>
      <text x="220" y="178" font-size="10" fill="#5A6371" text-anchor="middle">predicted confidence</text>
      <text x="440" y="178" font-size="10" fill="#5A6371" text-anchor="end">1.00</text>
      <text x="-12" y="160" font-size="10" fill="#5A6371" text-anchor="end">0%</text>
      <text x="-12" y="0" font-size="10" fill="#5A6371" text-anchor="end">100%</text>
      <text x="-44" y="80" font-size="10" fill="#5A6371" text-anchor="end" transform="rotate(-90, -44, 80)">actual success</text>
    </g>

    <text x="20" y="272" font-size="11" fill="#8A93A2">model is <tspan fill="#2DD4BF" font-weight="700">well-calibrated</tspan> above 0.85 · slightly under-confident in 0.65-0.80 band</text>
  </g>

  <g transform="translate(828, 540)">
    <rect width="588" height="296" rx="10" fill="url(#card)" stroke="#20242C"/>
    <text x="20" y="28" fill="#E8ECF3" font-size="14" font-weight="700">Recent decisions · audit trail</text>
    <text x="20" y="44" fill="#8A93A2" font-size="11">closes ROADMAP §4.5 audit trail &amp; compliance export (issue #565)</text>

    <g transform="translate(0, 76)" font-size="11">
      <g transform="translate(20, 0)">
        <text x="0" y="0" fill="#2DD4BF">✓ approve</text>
        <text x="80" y="0" fill="#E8ECF3">orchemist#797 · openrouter MAX_TOOL_ITERATIONS bump</text>
        <text x="568" y="0" fill="#5A6371" font-size="10" text-anchor="end">18 min ago</text>
      </g>
      <g transform="translate(20, 22)">
        <text x="0" y="0" fill="#2DD4BF">✓ approve</text>
        <text x="80" y="0" fill="#E8ECF3">orchemist#796 · sandbox_roots at 5 sites</text>
        <text x="568" y="0" fill="#5A6371" font-size="10" text-anchor="end">1h 4m ago</text>
      </g>
      <g transform="translate(20, 44)">
        <text x="0" y="0" fill="#EF4444">✗ reject</text>
        <text x="80" y="0" fill="#E8ECF3">orchemist#624 · docs-pipeline title bug · spec too vague</text>
        <text x="568" y="0" fill="#5A6371" font-size="10" text-anchor="end">3h 12m ago</text>
      </g>
      <g transform="translate(20, 66)">
        <text x="0" y="0" fill="#7C5CFC">⏏ auto</text>
        <text x="80" y="0" fill="#E8ECF3">orchemist#791 · GROUND TRUTH skip-spec · 0.94</text>
        <text x="568" y="0" fill="#5A6371" font-size="10" text-anchor="end">yesterday 14:33</text>
      </g>
      <g transform="translate(20, 88)">
        <text x="0" y="0" fill="#7C5CFC">⏏ auto</text>
        <text x="80" y="0" fill="#E8ECF3">orchemist#790 · GROUND TRUTH at/imp/rev/fix · 0.92</text>
        <text x="568" y="0" fill="#5A6371" font-size="10" text-anchor="end">yesterday 13:11</text>
      </g>
      <g transform="translate(20, 110)">
        <text x="0" y="0" fill="#7C5CFC">⏏ auto</text>
        <text x="80" y="0" fill="#E8ECF3">orchemist#789 · GROUND TRUTH spec_adversary · 0.91</text>
        <text x="568" y="0" fill="#5A6371" font-size="10" text-anchor="end">yesterday 12:48</text>
      </g>
    </g>

    <text x="20" y="262" font-size="10" fill="#5A6371">Exports: <tspan fill="#7C5CFC" text-decoration="underline">CSV</tspan> · <tspan fill="#7C5CFC" text-decoration="underline">JSON</tspan> · <tspan fill="#7C5CFC" text-decoration="underline">SOC2 evidence pack</tspan> · all decisions immutable (no destructive UI affordance)</text>
  </g>

  <!-- Bottom status -->
  <rect x="240" y="868" width="1200" height="32" fill="#0E1115" stroke="#1F2329" stroke-width="1"/>
  <g font-size="10" fill="#8A93A2">
    <circle cx="260" cy="884" r="3" fill="#2DD4BF"/>
    <text x="272" y="887">trust.py · 22 profiles · decay τ=14 days</text>
    <circle cx="510" cy="884" r="3" fill="#F59E0B"/>
    <text x="522" y="887">2 profiles below their threshold · auto-merge withheld</text>
    <text x="1416" y="887" text-anchor="end" fill="#5A6371">screen 4 / 6 · 2026-05-24</text>
  </g>
</svg>
