<svg xmlns="http://www.w3.org/2000/svg" viewBox="0 0 1440 900" font-family="ui-sans-serif, system-ui, -apple-system" fill="#E8ECF3">
  <!-- ====== Screen 5 of 6: Admin / Activation Console ====== -->
  <defs>
    <linearGradient id="brand" x1="0" y1="0" x2="1" y2="0">
      <stop offset="0%" stop-color="#7C5CFC"/>
      <stop offset="100%" stop-color="#2DD4BF"/>
    </linearGradient>
    <linearGradient id="card" x1="0" y1="0" x2="0" y2="1">
      <stop offset="0%" stop-color="#1B1F26"/>
      <stop offset="100%" stop-color="#14171C"/>
    </linearGradient>
    <pattern id="grid" width="40" height="40" patternUnits="userSpaceOnUse">
      <path d="M 40 0 L 0 0 0 40" fill="none" stroke="#1A1E25" stroke-width="0.5"/>
    </pattern>
  </defs>

  <rect width="1440" height="900" fill="#0B0D10"/>
  <rect width="1440" height="900" fill="url(#grid)" opacity="0.4"/>

  <!-- Left rail -->
  <rect x="0" y="0" width="240" height="900" fill="#0E1115" stroke="#1F2329" stroke-width="1"/>
  <text x="24" y="44" font-size="18" font-weight="800" fill="url(#brand)">ORCHEMIST</text>
  <text x="24" y="62" font-size="10" font-weight="500" fill="#8A93A2" letter-spacing="2">HARNESS · LEVEL 5</text>
  <g font-size="13" font-weight="600">
    <g transform="translate(0, 100)" fill="#8A93A2"><circle cx="32" cy="18" r="4" fill="none" stroke="#5A6371"/><text x="52" y="22">Fleet Dashboard</text><text x="206" y="22" fill="#5A6371" font-size="11" text-anchor="end">⌘1</text></g>
    <g transform="translate(0, 144)" fill="#8A93A2"><circle cx="32" cy="18" r="4" fill="none" stroke="#5A6371"/><text x="52" y="22">Run Cockpit</text><text x="206" y="22" fill="#5A6371" font-size="11" text-anchor="end">⌘2</text></g>
    <g transform="translate(0, 184)" fill="#8A93A2"><circle cx="32" cy="18" r="4" fill="none" stroke="#5A6371"/><text x="52" y="22">Adversary Loop</text><text x="206" y="22" fill="#5A6371" font-size="11" text-anchor="end">⌘3</text></g>
    <g transform="translate(0, 224)" fill="#8A93A2"><circle cx="32" cy="18" r="4" fill="none" stroke="#5A6371"/><text x="52" y="22">Trust &amp; Gates</text><text x="206" y="22" fill="#5A6371" font-size="11" text-anchor="end">⌘4</text></g>
    <g transform="translate(0, 264)">
      <rect x="12" y="0" width="216" height="36" rx="6" fill="#161A21" stroke="#7C5CFC" stroke-width="1.5"/>
      <circle cx="32" cy="18" r="4" fill="#7C5CFC"/>
      <text x="52" y="22" fill="#E8ECF3">Admin / Activation</text>
      <text x="206" y="22" fill="#5A6371" font-size="11" text-anchor="end">⌘5</text>
    </g>
    <g transform="translate(0, 304)" fill="#8A93A2"><circle cx="32" cy="18" r="4" fill="none" stroke="#5A6371"/><text x="52" y="22">Skills Pack Mode</text><text x="206" y="22" fill="#5A6371" font-size="11" text-anchor="end">⌘6</text></g>

    <!-- Sub-nav -->
    <text x="24" y="380" font-size="10" letter-spacing="2" fill="#5A6371" font-weight="600">SECTIONS</text>
    <g transform="translate(24, 400)" font-size="11">
      <text x="0" y="0" fill="#7C5CFC">▸</text><text x="14" y="0" fill="#E8ECF3">Autonomy ramp</text>
      <text x="0" y="22" fill="#5A6371">·</text><text x="14" y="22" fill="#8A93A2">Modes &amp; providers</text>
      <text x="0" y="44" fill="#5A6371">·</text><text x="14" y="44" fill="#8A93A2">Branch protection</text>
      <text x="0" y="66" fill="#5A6371">·</text><text x="14" y="66" fill="#8A93A2">Webhook triggers</text>
      <text x="0" y="88" fill="#5A6371">·</text><text x="14" y="88" fill="#8A93A2">Kill switches</text>
      <text x="0" y="110" fill="#5A6371">·</text><text x="14" y="110" fill="#8A93A2">Feature flags</text>
    </g>
  </g>

  <!-- Top bar -->
  <rect x="240" y="0" width="1200" height="64" fill="#0E1115" stroke="#1F2329" stroke-width="1"/>
  <text x="264" y="28" font-size="11" fill="#5A6371"><tspan fill="#7C5CFC" text-decoration="underline">Fleet</tspan> /</text>
  <text x="294" y="28" font-size="11" fill="#E8ECF3" font-weight="600">Admin / Activation</text>
  <text x="264" y="48" font-size="20" font-weight="700" fill="#E8ECF3">Activation console · what's on, what's gated, what's off</text>

  <!-- Privilege pill -->
  <g transform="translate(1080, 18)" font-size="11">
    <rect width="160" height="28" rx="14" fill="#2A1F1F" stroke="#EF4444"/>
    <circle cx="16" cy="14" r="4" fill="#EF4444"/>
    <text x="28" y="18" font-weight="700" fill="#EF4444">ADMIN · destructive ops</text>
  </g>
  <g transform="translate(1252, 18)" font-size="11">
    <rect width="118" height="28" rx="6" fill="#1B1F26" stroke="#20242C"/>
    <text x="59" y="18" fill="#E8ECF3" text-anchor="middle">Show audit log</text>
  </g>
  <circle cx="1395" cy="32" r="14" fill="url(#brand)"/>
  <text x="1395" y="36" font-size="11" font-weight="700" fill="#0B0D10" text-anchor="middle">RR</text>

  <!-- 1. Autonomy ramp -->
  <g transform="translate(264, 88)">
    <rect width="816" height="184" rx="10" fill="url(#card)" stroke="#20242C"/>
    <text x="20" y="28" fill="#E8ECF3" font-size="14" font-weight="700">1 · Autonomy ramp · current Level 4.3</text>
    <text x="20" y="44" fill="#8A93A2" font-size="11">L3 = review-all · L4 = auto-merge ≥ threshold · L5 = dark factory (full Tuesday-morning scenario)</text>

    <!-- ramp track -->
    <g transform="translate(20, 80)">
      <line x1="0" y1="20" x2="776" y2="20" stroke="#20242C" stroke-width="4"/>
      <line x1="0" y1="20" x2="486" y2="20" stroke="url(#brand)" stroke-width="4"/>

      <!-- ticks -->
      <g>
        <circle cx="0" cy="20" r="9" fill="#2DD4BF"/>
        <text x="0" y="24" font-size="10" fill="#0B0D10" font-weight="800" text-anchor="middle">3</text>
        <text x="0" y="56" font-size="11" fill="#E8ECF3" text-anchor="middle">L3</text>
      </g>
      <g transform="translate(194, 0)">
        <circle cx="0" cy="20" r="9" fill="#2DD4BF"/>
        <text x="0" y="24" font-size="10" fill="#0B0D10" font-weight="800" text-anchor="middle">3.5</text>
      </g>
      <g transform="translate(388, 0)">
        <circle cx="0" cy="20" r="9" fill="#2DD4BF"/>
        <text x="0" y="24" font-size="10" fill="#0B0D10" font-weight="800" text-anchor="middle">4</text>
        <text x="0" y="56" font-size="11" fill="#E8ECF3" text-anchor="middle">L4</text>
      </g>
      <g transform="translate(486, 0)">
        <circle cx="0" cy="20" r="11" fill="#F59E0B" stroke="#0B0D10" stroke-width="2">
          <animate attributeName="r" values="11;13;11" dur="1.6s" repeatCount="indefinite"/>
        </circle>
        <text x="0" y="24" font-size="10" fill="#0B0D10" font-weight="800" text-anchor="middle">4.3</text>
        <text x="0" y="56" font-size="11" fill="#F59E0B" text-anchor="middle" font-weight="700">YOU ARE HERE</text>
      </g>
      <g transform="translate(776, 0)">
        <circle cx="0" cy="20" r="9" fill="none" stroke="#5A6371" stroke-width="2"/>
        <text x="0" y="24" font-size="10" fill="#5A6371" font-weight="800" text-anchor="middle">5</text>
        <text x="0" y="56" font-size="11" fill="#8A93A2" text-anchor="middle">L5</text>
      </g>
    </g>

    <!-- unlock checklist -->
    <g transform="translate(20, 150)" font-size="11">
      <text x="0" y="0" fill="#8A93A2">To promote to Level 5 ·</text>
      <text x="140" y="0" fill="#2DD4BF">✓ fleet UI shipped</text>
      <text x="276" y="0" fill="#F59E0B">○ stale detection (3.5)</text>
      <text x="430" y="0" fill="#F59E0B">○ multi-repo (4.6 / Sprint 12)</text>
      <text x="624" y="0" fill="#F59E0B">○ dialogue PR #808</text>
    </g>
  </g>

  <!-- 2. Modes & providers -->
  <g transform="translate(1104, 88)">
    <rect width="312" height="184" rx="10" fill="url(#card)" stroke="#20242C"/>
    <text x="20" y="28" fill="#E8ECF3" font-size="14" font-weight="700">2 · Modes &amp; providers</text>

    <g transform="translate(20, 60)" font-size="11">
      <g>
        <text x="0" y="0" fill="#E8ECF3">openrouter</text>
        <g transform="translate(212, -12)">
          <rect width="60" height="20" rx="10" fill="#2DD4BF"/>
          <circle cx="50" cy="10" r="8" fill="#0B0D10"/>
          <text x="14" y="14" font-size="9" font-weight="700" fill="#0B0D10">ON</text>
        </g>
      </g>
      <g transform="translate(0, 32)">
        <text x="0" y="0" fill="#E8ECF3">standalone (Anthropic)</text>
        <g transform="translate(212, -12)">
          <rect width="60" height="20" rx="10" fill="#2DD4BF"/>
          <circle cx="50" cy="10" r="8" fill="#0B0D10"/>
          <text x="14" y="14" font-size="9" font-weight="700" fill="#0B0D10">ON</text>
        </g>
      </g>
      <g transform="translate(0, 64)">
        <text x="0" y="0" fill="#E8ECF3">openclaw gateway</text>
        <g transform="translate(212, -12)">
          <rect width="60" height="20" rx="10" fill="#3B2E1F" stroke="#F59E0B"/>
          <circle cx="10" cy="10" r="8" fill="#F59E0B"/>
          <text x="34" y="14" font-size="9" font-weight="700" fill="#F59E0B">OFF</text>
        </g>
      </g>
      <g transform="translate(0, 96)">
        <text x="0" y="0" fill="#E8ECF3">dry-run</text>
        <g transform="translate(212, -12)">
          <rect width="60" height="20" rx="10" fill="#2DD4BF"/>
          <circle cx="50" cy="10" r="8" fill="#0B0D10"/>
          <text x="14" y="14" font-size="9" font-weight="700" fill="#0B0D10">ON</text>
        </g>
      </g>
    </g>
  </g>

  <!-- 3. Branch protection enforcement -->
  <g transform="translate(264, 290)">
    <rect width="816" height="244" rx="10" fill="url(#card)" stroke="#EF4444"/>
    <text x="20" y="28" fill="#E8ECF3" font-size="14" font-weight="700">3 · Branch protection · drift detected</text>
    <text x="20" y="44" fill="#EF4444" font-size="11">all 4 repos currently have <tspan font-weight="700">NO branch protection on main</tspan> · auto-merge would land force-pushes if enabled</text>

    <!-- Repo matrix -->
    <g transform="translate(20, 80)" font-size="11">
      <g font-size="10" fill="#5A6371" letter-spacing="1">
        <text x="0" y="0">REPO</text>
        <text x="240" y="0">REQUIRED REVIEWS</text>
        <text x="390" y="0">REQUIRED STATUS</text>
        <text x="560" y="0">FORCE-PUSH BLOCK</text>
        <text x="776" y="0" text-anchor="end">FIX</text>
        <line x1="0" y1="8" x2="776" y2="8" stroke="#20242C"/>
      </g>

      <g transform="translate(0, 30)">
        <text x="0" y="0" fill="#E8ECF3">orchemist</text>
        <text x="240" y="0" fill="#EF4444">— off</text>
        <text x="390" y="0" fill="#EF4444">— off</text>
        <text x="560" y="0" fill="#EF4444">— off</text>
        <g transform="translate(716, -14)">
          <rect width="60" height="20" rx="4" fill="#1B1F26" stroke="#7C5CFC"/>
          <text x="30" y="14" font-size="11" fill="#7C5CFC" text-anchor="middle">Enable</text>
        </g>
      </g>
      <g transform="translate(0, 56)">
        <text x="0" y="0" fill="#E8ECF3">orchemist-skills</text>
        <text x="240" y="0" fill="#EF4444">— off</text>
        <text x="390" y="0" fill="#EF4444">— off</text>
        <text x="560" y="0" fill="#EF4444">— off</text>
        <g transform="translate(716, -14)">
          <rect width="60" height="20" rx="4" fill="#1B1F26" stroke="#7C5CFC"/>
          <text x="30" y="14" font-size="11" fill="#7C5CFC" text-anchor="middle">Enable</text>
        </g>
      </g>
      <g transform="translate(0, 82)">
        <text x="0" y="0" fill="#E8ECF3">orchemist-website</text>
        <text x="240" y="0" fill="#EF4444">— off</text>
        <text x="390" y="0" fill="#EF4444">— off</text>
        <text x="560" y="0" fill="#EF4444">— off</text>
        <g transform="translate(716, -14)">
          <rect width="60" height="20" rx="4" fill="#1B1F26" stroke="#7C5CFC"/>
          <text x="30" y="14" font-size="11" fill="#7C5CFC" text-anchor="middle">Enable</text>
        </g>
      </g>
      <g transform="translate(0, 108)" opacity="0.6">
        <text x="0" y="0" fill="#E8ECF3" text-decoration="line-through">orchemist-ide</text>
        <text x="240" y="0" fill="#5A6371">deprecated</text>
        <text x="390" y="0" fill="#5A6371">—</text>
        <text x="560" y="0" fill="#5A6371">—</text>
        <text x="776" y="0" font-size="11" fill="#5A6371" text-anchor="end">skip</text>
      </g>
    </g>

    <text x="20" y="220" font-size="10" fill="#5A6371">Engine git_integration.py already refuses force-push internally · branch protection adds defence-in-depth at the GitHub layer</text>
  </g>

  <!-- 4. Kill switches -->
  <g transform="translate(1104, 290)">
    <rect width="312" height="244" rx="10" fill="url(#card)" stroke="#20242C"/>
    <text x="20" y="28" fill="#E8ECF3" font-size="14" font-weight="700">4 · Kill switches</text>
    <text x="20" y="44" fill="#8A93A2" font-size="11">instant stop · do not require redeploy</text>

    <g transform="translate(20, 76)" font-size="11">
      <g>
        <text x="0" y="0" fill="#E8ECF3">Auto-merge globally</text>
        <g transform="translate(212, -12)">
          <rect width="60" height="20" rx="10" fill="#2DD4BF"/>
          <circle cx="50" cy="10" r="8" fill="#0B0D10"/>
          <text x="14" y="14" font-size="9" font-weight="700" fill="#0B0D10">ON</text>
        </g>
      </g>
      <g transform="translate(0, 36)">
        <text x="0" y="0" fill="#E8ECF3">Issue → pipeline auto-spawn</text>
        <g transform="translate(212, -12)">
          <rect width="60" height="20" rx="10" fill="#2DD4BF"/>
          <circle cx="50" cy="10" r="8" fill="#0B0D10"/>
          <text x="14" y="14" font-size="9" font-weight="700" fill="#0B0D10">ON</text>
        </g>
      </g>
      <g transform="translate(0, 72)">
        <text x="0" y="0" fill="#E8ECF3">Regression auto-fix</text>
        <g transform="translate(212, -12)">
          <rect width="60" height="20" rx="10" fill="#2DD4BF"/>
          <circle cx="50" cy="10" r="8" fill="#0B0D10"/>
          <text x="14" y="14" font-size="9" font-weight="700" fill="#0B0D10">ON</text>
        </g>
      </g>
      <g transform="translate(0, 108)">
        <text x="0" y="0" fill="#E8ECF3">Skills pack mode</text>
        <g transform="translate(212, -12)">
          <rect width="60" height="20" rx="10" fill="#2DD4BF"/>
          <circle cx="50" cy="10" r="8" fill="#0B0D10"/>
          <text x="14" y="14" font-size="9" font-weight="700" fill="#0B0D10">ON</text>
        </g>
      </g>

      <g transform="translate(0, 156)">
        <rect width="272" height="32" rx="6" fill="#2A1F1F" stroke="#EF4444"/>
        <text x="136" y="20" fill="#EF4444" font-size="11" font-weight="700" text-anchor="middle">PANIC · stop all pipelines</text>
      </g>
    </g>
  </g>

  <!-- 5. Webhook triggers + Phase-0 hard gate -->
  <g transform="translate(264, 552)">
    <rect width="816" height="284" rx="10" fill="url(#card)" stroke="#20242C"/>
    <text x="20" y="28" fill="#E8ECF3" font-size="14" font-weight="700">5 · Webhook triggers · 4 registered</text>
    <text x="20" y="44" fill="#8A93A2" font-size="11">events that auto-spawn pipelines · per-trigger rate limits enforced (webhooks.py)</text>

    <g transform="translate(20, 80)" font-size="11">
      <g font-size="10" fill="#5A6371" letter-spacing="1">
        <text x="0" y="0">TRIGGER</text>
        <text x="260" y="0">EVENT</text>
        <text x="430" y="0">TEMPLATE</text>
        <text x="630" y="0">RATE</text>
        <text x="776" y="0" text-anchor="end">ENABLED</text>
        <line x1="0" y1="8" x2="776" y2="8" stroke="#20242C"/>
      </g>

      <g transform="translate(0, 26)" font-size="12">
        <text x="0" y="0" fill="#E8ECF3" font-weight="600">issue-bug-fix</text>
        <text x="260" y="0" fill="#8A93A2">issues.opened · label:bug</text>
        <text x="430" y="0" fill="#8A93A2">coding-pipeline-standard</text>
        <text x="630" y="0" fill="#8A93A2">10/h</text>
        <g transform="translate(710, -12)">
          <rect width="60" height="20" rx="10" fill="#2DD4BF"/>
          <circle cx="50" cy="10" r="8" fill="#0B0D10"/>
        </g>
      </g>
      <g transform="translate(0, 56)" font-size="12">
        <text x="0" y="0" fill="#E8ECF3" font-weight="600">issue-feature</text>
        <text x="260" y="0" fill="#8A93A2">issues.opened · label:enhancement</text>
        <text x="430" y="0" fill="#8A93A2">coding-pipeline-standard</text>
        <text x="630" y="0" fill="#8A93A2">6/h</text>
        <g transform="translate(710, -12)">
          <rect width="60" height="20" rx="10" fill="#2DD4BF"/>
          <circle cx="50" cy="10" r="8" fill="#0B0D10"/>
        </g>
      </g>
      <g transform="translate(0, 86)" font-size="12">
        <text x="0" y="0" fill="#E8ECF3" font-weight="600">ci-regression</text>
        <text x="260" y="0" fill="#8A93A2">workflow_run.completed · status:failure</text>
        <text x="430" y="0" fill="#8A93A2">regression-fix-pipeline</text>
        <text x="630" y="0" fill="#8A93A2">12/h</text>
        <g transform="translate(710, -12)">
          <rect width="60" height="20" rx="10" fill="#2DD4BF"/>
          <circle cx="50" cy="10" r="8" fill="#0B0D10"/>
        </g>
      </g>
      <g transform="translate(0, 116)" font-size="12">
        <text x="0" y="0" fill="#E8ECF3" font-weight="600">docs-stale</text>
        <text x="260" y="0" fill="#8A93A2">schedule.daily 04:00 UTC</text>
        <text x="430" y="0" fill="#8A93A2">docs-pipeline-v1</text>
        <text x="630" y="0" fill="#8A93A2">1/d</text>
        <g transform="translate(710, -12)">
          <rect width="60" height="20" rx="10" fill="#3B2E1F" stroke="#F59E0B"/>
          <circle cx="10" cy="10" r="8" fill="#F59E0B"/>
        </g>
      </g>

      <g transform="translate(0, 156)">
        <rect width="776" height="28" rx="6" fill="none" stroke="#7C5CFC" stroke-dasharray="3 3"/>
        <text x="388" y="18" fill="#7C5CFC" font-size="11" text-anchor="middle">+ Add trigger · GitHub event · scheduled · custom HTTP</text>
      </g>
    </g>
  </g>

  <!-- 6. Phase 0 hard gate + feature flags -->
  <g transform="translate(1104, 552)">
    <rect width="312" height="284" rx="10" fill="url(#card)" stroke="#20242C"/>
    <text x="20" y="28" fill="#E8ECF3" font-size="14" font-weight="700">6 · Feature flags · v4.2</text>

    <g transform="translate(20, 76)" font-size="11">
      <g>
        <text x="0" y="0" fill="#E8ECF3" font-weight="600">phase0_hard_gate</text>
        <text x="0" y="16" fill="#5A6371" font-size="10">HALT on missing inventory</text>
        <g transform="translate(212, -12)">
          <rect width="60" height="20" rx="10" fill="#3B2E1F" stroke="#F59E0B"/>
          <circle cx="10" cy="10" r="8" fill="#F59E0B"/>
          <text x="34" y="14" font-size="9" font-weight="700" fill="#F59E0B">OFF</text>
        </g>
      </g>
      <g transform="translate(0, 50)">
        <text x="0" y="0" fill="#E8ECF3" font-weight="600">EXTEND verdict</text>
        <text x="0" y="16" fill="#5A6371" font-size="10">v4.2 four-verdict schema</text>
        <g transform="translate(212, -12)">
          <rect width="60" height="20" rx="10" fill="#2DD4BF"/>
          <circle cx="50" cy="10" r="8" fill="#0B0D10"/>
          <text x="14" y="14" font-size="9" font-weight="700" fill="#0B0D10">ON</text>
        </g>
      </g>
      <g transform="translate(0, 100)">
        <text x="0" y="0" fill="#E8ECF3" font-weight="600">dialogue phase (#808)</text>
        <text x="0" y="16" fill="#5A6371" font-size="10">Gemini reviewer prototype</text>
        <g transform="translate(212, -12)">
          <rect width="60" height="20" rx="10" fill="#1F1F2E" stroke="#7C5CFC"/>
          <circle cx="10" cy="10" r="8" fill="#7C5CFC"/>
          <text x="34" y="14" font-size="9" font-weight="700" fill="#7C5CFC">DEV</text>
        </g>
      </g>
      <g transform="translate(0, 150)">
        <text x="0" y="0" fill="#E8ECF3" font-weight="600">cross-repo orchestration</text>
        <text x="0" y="16" fill="#5A6371" font-size="10">Sprint 12 · #563-#567</text>
        <g transform="translate(212, -12)">
          <rect width="60" height="20" rx="10" fill="#3B2E1F" stroke="#F59E0B"/>
          <circle cx="10" cy="10" r="8" fill="#F59E0B"/>
          <text x="34" y="14" font-size="9" font-weight="700" fill="#F59E0B">OFF</text>
        </g>
      </g>
    </g>
  </g>

  <!-- Bottom status -->
  <rect x="240" y="868" width="1200" height="32" fill="#0E1115" stroke="#1F2329" stroke-width="1"/>
  <g font-size="10" fill="#8A93A2">
    <circle cx="260" cy="884" r="3" fill="#EF4444"/>
    <text x="272" y="887">branch protection · 3/3 repos exposed · enable to promote L5</text>
    <text x="1416" y="887" text-anchor="end" fill="#5A6371">screen 5 / 6 · 2026-05-24</text>
  </g>
</svg>
