<svg xmlns="http://www.w3.org/2000/svg" viewBox="0 0 1440 900" font-family="ui-sans-serif, system-ui, -apple-system" fill="#E8ECF3">
  <!-- ====== Screen 6 of 6: Skills Pack Mode (local Claude Code surface) ====== -->
  <defs>
    <linearGradient id="brand" x1="0" y1="0" x2="1" y2="0">
      <stop offset="0%" stop-color="#7C5CFC"/>
      <stop offset="100%" stop-color="#2DD4BF"/>
    </linearGradient>
    <linearGradient id="card" x1="0" y1="0" x2="0" y2="1">
      <stop offset="0%" stop-color="#1B1F26"/>
      <stop offset="100%" stop-color="#14171C"/>
    </linearGradient>
    <pattern id="grid" width="40" height="40" patternUnits="userSpaceOnUse">
      <path d="M 40 0 L 0 0 0 40" fill="none" stroke="#1A1E25" stroke-width="0.5"/>
    </pattern>
  </defs>

  <rect width="1440" height="900" fill="#0B0D10"/>
  <rect width="1440" height="900" fill="url(#grid)" opacity="0.4"/>

  <!-- Left rail -->
  <rect x="0" y="0" width="240" height="900" fill="#0E1115" stroke="#1F2329" stroke-width="1"/>
  <text x="24" y="44" font-size="18" font-weight="800" fill="url(#brand)">ORCHEMIST</text>
  <text x="24" y="62" font-size="10" font-weight="500" fill="#8A93A2" letter-spacing="2">HARNESS · LEVEL 5</text>
  <g font-size="13" font-weight="600">
    <g transform="translate(0, 100)" fill="#8A93A2"><circle cx="32" cy="18" r="4" fill="none" stroke="#5A6371"/><text x="52" y="22">Fleet Dashboard</text><text x="206" y="22" fill="#5A6371" font-size="11" text-anchor="end">⌘1</text></g>
    <g transform="translate(0, 144)" fill="#8A93A2"><circle cx="32" cy="18" r="4" fill="none" stroke="#5A6371"/><text x="52" y="22">Run Cockpit</text><text x="206" y="22" fill="#5A6371" font-size="11" text-anchor="end">⌘2</text></g>
    <g transform="translate(0, 184)" fill="#8A93A2"><circle cx="32" cy="18" r="4" fill="none" stroke="#5A6371"/><text x="52" y="22">Adversary Loop</text><text x="206" y="22" fill="#5A6371" font-size="11" text-anchor="end">⌘3</text></g>
    <g transform="translate(0, 224)" fill="#8A93A2"><circle cx="32" cy="18" r="4" fill="none" stroke="#5A6371"/><text x="52" y="22">Trust &amp; Gates</text><text x="206" y="22" fill="#5A6371" font-size="11" text-anchor="end">⌘4</text></g>
    <g transform="translate(0, 264)" fill="#8A93A2"><circle cx="32" cy="18" r="4" fill="none" stroke="#5A6371"/><text x="52" y="22">Admin / Activation</text><text x="206" y="22" fill="#5A6371" font-size="11" text-anchor="end">⌘5</text></g>
    <g transform="translate(0, 304)">
      <rect x="12" y="0" width="216" height="36" rx="6" fill="#161A21" stroke="#7C5CFC" stroke-width="1.5"/>
      <circle cx="32" cy="18" r="4" fill="#7C5CFC"/>
      <text x="52" y="22" fill="#E8ECF3">Skills Pack Mode</text>
      <text x="206" y="22" fill="#5A6371" font-size="11" text-anchor="end">⌘6</text>
    </g>

    <!-- Mode chooser -->
    <text x="24" y="400" font-size="10" letter-spacing="2" fill="#5A6371" font-weight="600">EXECUTION TARGET</text>
    <g transform="translate(24, 416)" font-size="11">
      <rect width="200" height="28" rx="6" fill="#1B1F26" stroke="#20242C"/>
      <text x="14" y="18" fill="#E8ECF3">Local · Claude Code CLI</text>
      <text x="186" y="18" fill="#7C5CFC" text-anchor="end">▼</text>
    </g>
    <g transform="translate(24, 460)" font-size="11">
      <text x="0" y="0" fill="#8A93A2">Remote engine · /api/v1</text>
      <text x="0" y="18" fill="#8A93A2">Dry-run (no exec)</text>
    </g>
  </g>

  <!-- Top bar -->
  <rect x="240" y="0" width="1200" height="64" fill="#0E1115" stroke="#1F2329" stroke-width="1"/>
  <text x="264" y="28" font-size="11" fill="#5A6371"><tspan fill="#7C5CFC" text-decoration="underline">Fleet</tspan> /</text>
  <text x="294" y="28" font-size="11" fill="#E8ECF3" font-weight="600">Skills Pack Mode</text>
  <text x="264" y="48" font-size="20" font-weight="700" fill="#E8ECF3">Track A · run the pipeline locally inside Claude Code</text>

  <g transform="translate(1130, 18)" font-size="11">
    <rect width="120" height="28" rx="6" fill="#1B1F26" stroke="#7C5CFC"/>
    <text x="60" y="18" fill="#7C5CFC" text-anchor="middle">/orchemist:run</text>
  </g>
  <g transform="translate(1262, 18)" font-size="11">
    <rect width="108" height="28" rx="6" fill="#1B1F26" stroke="#20242C"/>
    <text x="54" y="18" fill="#E8ECF3" text-anchor="middle">Update pack</text>
  </g>
  <circle cx="1395" cy="32" r="14" fill="url(#brand)"/>
  <text x="1395" y="36" font-size="11" font-weight="700" fill="#0B0D10" text-anchor="middle">RR</text>

  <!-- Install state + version banner -->
  <g transform="translate(264, 88)">
    <rect width="1152" height="120" rx="10" fill="url(#card)" stroke="#2DD4BF"/>
    <g transform="translate(28, 36)">
      <rect width="64" height="64" rx="16" fill="#1B2A1F" stroke="#2DD4BF"/>
      <text x="32" y="42" font-size="28" font-weight="800" fill="#2DD4BF" text-anchor="middle">✓</text>
    </g>
    <text x="116" y="46" fill="#E8ECF3" font-size="18" font-weight="700">Skills pack installed · v4.2 pipeline · 2026-05-24</text>
    <text x="116" y="68" fill="#8A93A2" font-size="12">~/.claude/skills/orchemist-* · 3 subagents · 2 pipelines · last updated locally 19:12 UTC</text>
    <text x="116" y="90" fill="#7C5CFC" font-size="12">github.com/ToscanAI/orchemist-skills · public · MIT · 0 ★ (alpha)</text>

    <g transform="translate(900, 36)" font-size="11">
      <rect width="222" height="28" rx="6" fill="#1B1F26" stroke="#20242C"/>
      <text x="111" y="18" fill="#E8ECF3" text-anchor="middle">Open in github.com ↗</text>
    </g>
    <g transform="translate(900, 70)" font-size="11">
      <rect width="222" height="28" rx="6" fill="#1B1F26" stroke="#7C5CFC"/>
      <text x="111" y="18" fill="#7C5CFC" text-anchor="middle">Reinstall · ./install.sh</text>
    </g>
  </g>

  <!-- Skills grid -->
  <g transform="translate(264, 228)">
    <rect width="816" height="368" rx="10" fill="url(#card)" stroke="#20242C"/>
    <text x="20" y="28" fill="#E8ECF3" font-size="14" font-weight="700">Phase skills (10) · invoked via /orchemist:&lt;phase&gt;</text>
    <text x="20" y="44" fill="#8A93A2" font-size="11">each skill delegates to a fresh subagent per [[feedback_fresh_subagent_per_phase]]</text>

    <!-- Skills as cards in grid 5x2 -->
    <g transform="translate(20, 72)">
      <!-- Row 1 -->
      <g>
        <rect width="150" height="56" rx="6" fill="#1B2A1F" stroke="#2DD4BF"/>
        <text x="12" y="20" font-size="10" letter-spacing="1" fill="#2DD4BF">PHASE 0 · v4.2</text>
        <text x="12" y="38" font-size="11" fill="#E8ECF3" font-weight="700">existing_symbols</text>
        <text x="12" y="52" font-size="10" fill="#8A93A2">sticky inventory</text>
      </g>
      <g transform="translate(158, 0)">
        <rect width="150" height="56" rx="6" fill="#1B1F26" stroke="#20242C"/>
        <text x="12" y="20" font-size="10" letter-spacing="1" fill="#8A93A2">PHASE 1a</text>
        <text x="12" y="38" font-size="11" fill="#E8ECF3" font-weight="700">spec</text>
        <text x="12" y="52" font-size="10" fill="#8A93A2">general-purpose</text>
      </g>
      <g transform="translate(316, 0)">
        <rect width="150" height="56" rx="6" fill="#1B1F26" stroke="#20242C"/>
        <text x="12" y="20" font-size="10" letter-spacing="1" fill="#8A93A2">PHASE 1b</text>
        <text x="12" y="38" font-size="11" fill="#E8ECF3" font-weight="700">behavioral</text>
        <text x="12" y="52" font-size="10" fill="#8A93A2">general-purpose</text>
      </g>
      <g transform="translate(474, 0)">
        <rect width="150" height="56" rx="6" fill="#1F1F2E" stroke="#7C5CFC"/>
        <text x="12" y="20" font-size="10" letter-spacing="1" fill="#7C5CFC">PHASE 1c · OPUS</text>
        <text x="12" y="38" font-size="11" fill="#E8ECF3" font-weight="700">adversary</text>
        <text x="12" y="52" font-size="10" fill="#8A93A2">orchemist-adversary</text>
      </g>
      <g transform="translate(632, 0)">
        <rect width="150" height="56" rx="6" fill="#1B1F26" stroke="#20242C"/>
        <text x="12" y="20" font-size="10" letter-spacing="1" fill="#8A93A2">PHASE 2</text>
        <text x="12" y="38" font-size="11" fill="#E8ECF3" font-weight="700">acceptance_test</text>
        <text x="12" y="52" font-size="10" fill="#8A93A2">orchemist-tester</text>
      </g>

      <!-- Row 2 -->
      <g transform="translate(0, 72)">
        <rect width="150" height="56" rx="6" fill="#161A21" stroke="#20242C"/>
        <text x="12" y="20" font-size="10" letter-spacing="1" fill="#8A93A2">PHASE 3a</text>
        <text x="12" y="38" font-size="11" fill="#E8ECF3" font-weight="700">acceptance_run</text>
        <text x="12" y="52" font-size="10" fill="#5A6371">engine · no LLM</text>
      </g>
      <g transform="translate(158, 72)">
        <rect width="150" height="56" rx="6" fill="#1B1F26" stroke="#20242C"/>
        <text x="12" y="20" font-size="10" letter-spacing="1" fill="#8A93A2">PHASE 3</text>
        <text x="12" y="38" font-size="11" fill="#E8ECF3" font-weight="700">implement</text>
        <text x="12" y="52" font-size="10" fill="#8A93A2">orchemist-implementer</text>
      </g>
      <g transform="translate(316, 72)">
        <rect width="150" height="56" rx="6" fill="#1F1F2E" stroke="#7C5CFC"/>
        <text x="12" y="20" font-size="10" letter-spacing="1" fill="#7C5CFC">PHASE 4 · OPUS</text>
        <text x="12" y="38" font-size="11" fill="#E8ECF3" font-weight="700">review</text>
        <text x="12" y="52" font-size="10" fill="#8A93A2">general-purpose</text>
      </g>
      <g transform="translate(474, 72)">
        <rect width="150" height="56" rx="6" fill="#1B1F26" stroke="#20242C"/>
        <text x="12" y="20" font-size="10" letter-spacing="1" fill="#8A93A2">PHASE 4b</text>
        <text x="12" y="38" font-size="11" fill="#E8ECF3" font-weight="700">fix</text>
        <text x="12" y="52" font-size="10" fill="#8A93A2">general-purpose</text>
      </g>
      <g transform="translate(632, 72)">
        <rect width="150" height="56" rx="6" fill="#161A21" stroke="#20242C"/>
        <text x="12" y="20" font-size="10" letter-spacing="1" fill="#8A93A2">PHASE 5</text>
        <text x="12" y="38" font-size="11" fill="#E8ECF3" font-weight="700">test</text>
        <text x="12" y="52" font-size="10" fill="#5A6371">engine · no LLM</text>
      </g>

      <!-- run orchestrator -->
      <g transform="translate(0, 158)">
        <rect width="782" height="58" rx="6" fill="#1B1F26" stroke="#7C5CFC" stroke-dasharray="3 3"/>
        <text x="20" y="22" font-size="10" letter-spacing="1" fill="#7C5CFC">/orchemist:run</text>
        <text x="20" y="42" fill="#E8ECF3" font-size="12">orchestrator · drives the YAML state machine end-to-end · persists state to .orchemist/runs/&lt;id&gt;/state.json · resumable</text>
      </g>

      <!-- pipelines -->
      <g transform="translate(0, 232)">
        <rect width="380" height="48" rx="6" fill="#1B1F26" stroke="#20242C"/>
        <text x="12" y="20" font-size="10" letter-spacing="1" fill="#8A93A2">PIPELINE YAML · v4.2</text>
        <text x="12" y="38" font-size="11" fill="#E8ECF3" font-weight="700">coding-pipeline-standard.yaml (1317 lines)</text>
      </g>
      <g transform="translate(402, 232)">
        <rect width="380" height="48" rx="6" fill="#1B1F26" stroke="#20242C"/>
        <text x="12" y="20" font-size="10" letter-spacing="1" fill="#8A93A2">PIPELINE YAML · v4.2</text>
        <text x="12" y="38" font-size="11" fill="#E8ECF3" font-weight="700">coding-pipeline-skip-spec.yaml (Phase-0 absent)</text>
      </g>
    </g>
  </g>

  <!-- Right: local run history + promote button -->
  <g transform="translate(1104, 228)">
    <rect width="312" height="368" rx="10" fill="url(#card)" stroke="#20242C"/>
    <text x="20" y="28" fill="#E8ECF3" font-size="14" font-weight="700">Local run history</text>
    <text x="20" y="44" fill="#8A93A2" font-size="11">.orchemist/runs/ · cwd: ~/ToscanWorkspace/orchemist</text>

    <g transform="translate(20, 80)" font-size="11">
      <g>
        <text x="0" y="0" fill="#E8ECF3" font-weight="600">b90a3719</text>
        <text x="0" y="16" fill="#5A6371" font-size="10">parseDuration · 12/12 ✓</text>
        <text x="272" y="0" fill="#2DD4BF" font-size="10" text-anchor="end">today</text>
      </g>
      <g transform="translate(0, 44)">
        <text x="0" y="0" fill="#E8ECF3" font-weight="600">a4f2c0c1</text>
        <text x="0" y="16" fill="#5A6371" font-size="10">CompanyPostEditor · 32/32 ✓</text>
        <text x="272" y="0" fill="#8A93A2" font-size="10" text-anchor="end">4d ago</text>
      </g>
      <g transform="translate(0, 88)">
        <text x="0" y="0" fill="#E8ECF3" font-weight="600">5e1b39d3</text>
        <text x="0" y="16" fill="#5A6371" font-size="10">N5-1 fixture · 18/18 ✓</text>
        <text x="272" y="0" fill="#8A93A2" font-size="10" text-anchor="end">11d ago</text>
      </g>
      <g transform="translate(0, 132)">
        <text x="0" y="0" fill="#F59E0B" font-weight="600">3b50b5bf</text>
        <text x="0" y="16" fill="#5A6371" font-size="10">spec exhausted at R3</text>
        <text x="272" y="0" fill="#8A93A2" font-size="10" text-anchor="end">43d ago</text>
      </g>
    </g>

    <text x="20" y="276" font-size="10" letter-spacing="1" fill="#5A6371">PROMOTE TO REMOTE</text>
    <g transform="translate(20, 290)">
      <rect width="272" height="28" rx="6" fill="none" stroke="#7C5CFC" stroke-dasharray="3 3"/>
      <text x="136" y="18" fill="#7C5CFC" font-size="11" font-weight="600" text-anchor="middle">Replay this run via remote engine</text>
    </g>
    <text x="20" y="338" font-size="10" fill="#5A6371">→ writes PR + lands trust calibration update</text>
  </g>

  <!-- Bottom: terminal-style /orchemist:run invocation preview -->
  <g transform="translate(264, 616)">
    <rect width="1152" height="220" rx="10" fill="#0A0C0F" stroke="#20242C"/>
    <text x="20" y="28" fill="#8A93A2" font-size="11" font-family="ui-monospace, 'Cascadia Code', monospace">$ claude</text>
    <text x="20" y="48" fill="#8A93A2" font-size="11" font-family="ui-monospace, 'Cascadia Code', monospace">&gt; /orchemist:run examples/example-issue.md</text>
    <text x="20" y="80" fill="#E8ECF3" font-size="11" font-family="ui-monospace, 'Cascadia Code', monospace">orchemist · v4.2 · standard pipeline</text>
    <text x="20" y="100" fill="#E8ECF3" font-size="11" font-family="ui-monospace, 'Cascadia Code', monospace">→ creating run b90a3719 at .orchemist/runs/2026-05-24-b90a3719/</text>
    <g font-size="11" font-family="ui-monospace, 'Cascadia Code', monospace">
      <text x="20" y="124" fill="#5A6371">[0]</text>
      <text x="60" y="124" fill="#2DD4BF">existing_symbols_inventory</text>
      <text x="320" y="124" fill="#2DD4BF">✓</text>
      <text x="360" y="124" fill="#8A93A2">41 symbols · 18s · $0.04</text>
      <text x="20" y="142" fill="#5A6371">[1a]</text>
      <text x="60" y="142" fill="#2DD4BF">spec</text>
      <text x="320" y="142" fill="#2DD4BF">✓</text>
      <text x="360" y="142" fill="#8A93A2">1 EXTEND · 2 NEW-OK · 1m 02s · $0.18</text>
      <text x="20" y="160" fill="#5A6371">[1b]</text>
      <text x="60" y="160" fill="#2DD4BF">behavioral</text>
      <text x="320" y="160" fill="#2DD4BF">✓</text>
      <text x="360" y="160" fill="#8A93A2">7 contracts · 48s · $0.12</text>
      <text x="20" y="178" fill="#5A6371">[1c]</text>
      <text x="60" y="178" fill="#7C5CFC">spec_adversary R2 (opus)</text>
      <text x="320" y="178" fill="#2DD4BF">✓ APPROVE</text>
      <text x="420" y="178" fill="#8A93A2">jaccard 0.93 · $0.62</text>
      <text x="20" y="196" fill="#5A6371">[3]</text>
      <text x="60" y="196" fill="#7C5CFC">implement</text>
      <text x="320" y="196" fill="#7C5CFC">running…</text>
      <text x="420" y="196" fill="#8A93A2">23/100 tool calls · $0.26</text>
    </g>
  </g>

  <!-- Bottom status -->
  <rect x="240" y="868" width="1200" height="32" fill="#0E1115" stroke="#1F2329" stroke-width="1"/>
  <g font-size="10" fill="#8A93A2">
    <circle cx="260" cy="884" r="3" fill="#2DD4BF"/>
    <text x="272" y="887">skills-pack v4.2 · pipeline-yaml v4.2 · install.sh idempotent</text>
    <circle cx="652" cy="884" r="3" fill="#2DD4BF"/>
    <text x="664" y="887">Track A · Orchemist-skills · public 2026-05-21</text>
    <text x="1416" y="887" text-anchor="end" fill="#5A6371">screen 6 / 6 · 2026-05-24</text>
  </g>
</svg>
